%TF.GenerationSoftware,KiCad,Pcbnew,9.0.1*%
%TF.CreationDate,2025-10-29T11:23:24-07:00*%
%TF.ProjectId,theConductor,74686543-6f6e-4647-9563-746f722e6b69,rev?*%
%TF.SameCoordinates,Original*%
%TF.FileFunction,Copper,L2,Bot*%
%TF.FilePolarity,Positive*%
%FSLAX46Y46*%
G04 Gerber Fmt 4.6, Leading zero omitted, Abs format (unit mm)*
G04 Created by KiCad (PCBNEW 9.0.1) date 2025-10-29 11:23:24*
%MOMM*%
%LPD*%
G01*
G04 APERTURE LIST*
G04 Aperture macros list*
%AMRoundRect*
0 Rectangle with rounded corners*
0 $1 Rounding radius*
0 $2 $3 $4 $5 $6 $7 $8 $9 X,Y pos of 4 corners*
0 Add a 4 corners polygon primitive as box body*
4,1,4,$2,$3,$4,$5,$6,$7,$8,$9,$2,$3,0*
0 Add four circle primitives for the rounded corners*
1,1,$1+$1,$2,$3*
1,1,$1+$1,$4,$5*
1,1,$1+$1,$6,$7*
1,1,$1+$1,$8,$9*
0 Add four rect primitives between the rounded corners*
20,1,$1+$1,$2,$3,$4,$5,0*
20,1,$1+$1,$4,$5,$6,$7,0*
20,1,$1+$1,$6,$7,$8,$9,0*
20,1,$1+$1,$8,$9,$2,$3,0*%
G04 Aperture macros list end*
%TA.AperFunction,SMDPad,CuDef*%
%ADD10RoundRect,0.150000X-0.150000X-0.625000X0.150000X-0.625000X0.150000X0.625000X-0.150000X0.625000X0*%
%TD*%
%TA.AperFunction,SMDPad,CuDef*%
%ADD11RoundRect,0.250000X-0.350000X-0.650000X0.350000X-0.650000X0.350000X0.650000X-0.350000X0.650000X0*%
%TD*%
%TA.AperFunction,SMDPad,CuDef*%
%ADD12RoundRect,0.100000X-0.400000X0.400000X-0.400000X-0.400000X0.400000X-0.400000X0.400000X0.400000X0*%
%TD*%
%TA.AperFunction,SMDPad,CuDef*%
%ADD13RoundRect,0.105000X-0.995000X0.420000X-0.995000X-0.420000X0.995000X-0.420000X0.995000X0.420000X0*%
%TD*%
%TA.AperFunction,SMDPad,CuDef*%
%ADD14R,0.600000X1.500000*%
%TD*%
%TA.AperFunction,SMDPad,CuDef*%
%ADD15R,0.800000X1.500000*%
%TD*%
%TA.AperFunction,SMDPad,CuDef*%
%ADD16RoundRect,0.062500X0.337500X0.062500X-0.337500X0.062500X-0.337500X-0.062500X0.337500X-0.062500X0*%
%TD*%
%TA.AperFunction,HeatsinkPad*%
%ADD17R,1.700000X1.400000*%
%TD*%
%TA.AperFunction,SMDPad,CuDef*%
%ADD18RoundRect,0.250000X-0.475000X0.250000X-0.475000X-0.250000X0.475000X-0.250000X0.475000X0.250000X0*%
%TD*%
%TA.AperFunction,ViaPad*%
%ADD19C,0.600000*%
%TD*%
%TA.AperFunction,Conductor*%
%ADD20C,0.600000*%
%TD*%
%TA.AperFunction,Conductor*%
%ADD21C,0.200000*%
%TD*%
G04 APERTURE END LIST*
D10*
%TO.P,J4,1,Pin_1*%
%TO.N,GND*%
X98500000Y-93675000D03*
%TO.P,J4,2,Pin_2*%
%TO.N,+3V3*%
X99500000Y-93675000D03*
%TO.P,J4,3,Pin_3*%
%TO.N,SDA*%
X100500000Y-93675000D03*
%TO.P,J4,4,Pin_4*%
%TO.N,SCL*%
X101500000Y-93675000D03*
D11*
%TO.P,J4,MP,MountPin*%
%TO.N,unconnected-(J4-MountPin-PadMP)*%
X97200000Y-96200000D03*
X102800000Y-96200000D03*
%TD*%
D12*
%TO.P,J3,1,In*%
%TO.N,Net-(E9-Pin_1)*%
X98500000Y-105511800D03*
D13*
%TO.P,J3,2,Ext*%
%TO.N,Net-(E10-Pin_1)*%
X100000000Y-106986800D03*
D12*
X101500000Y-105511800D03*
D13*
X100000000Y-104036800D03*
%TD*%
D14*
%TO.P,J2,1*%
%TO.N,Net-(E6-Pin_1)*%
X101500000Y-113458600D03*
%TO.P,J2,2*%
%TO.N,Net-(E5-Pin_1)*%
X100500000Y-110658600D03*
%TO.P,J2,3*%
%TO.N,Net-(E7-Pin_1)*%
X99500000Y-113458600D03*
%TO.P,J2,4*%
%TO.N,Net-(E8-Pin_1)*%
X98500000Y-110658600D03*
D15*
%TO.P,J2,Z1*%
%TO.N,Net-(E6-Pin_1)*%
X103000000Y-113458600D03*
%TO.P,J2,Z2*%
%TO.N,Net-(E5-Pin_1)*%
X103000000Y-110658600D03*
%TO.P,J2,Z3*%
%TO.N,Net-(E7-Pin_1)*%
X97000000Y-113458600D03*
%TO.P,J2,Z4*%
%TO.N,Net-(E8-Pin_1)*%
X97000000Y-110658600D03*
%TD*%
D14*
%TO.P,J1,1*%
%TO.N,Net-(E2-Pin_1)*%
X98500000Y-86541400D03*
%TO.P,J1,2*%
%TO.N,Net-(E1-Pin_1)*%
X99500000Y-89341400D03*
%TO.P,J1,3*%
%TO.N,Net-(E3-Pin_1)*%
X100500000Y-86541400D03*
%TO.P,J1,4*%
%TO.N,Net-(E4-Pin_1)*%
X101500000Y-89341400D03*
D15*
%TO.P,J1,Z1*%
%TO.N,Net-(E2-Pin_1)*%
X97000000Y-86541400D03*
%TO.P,J1,Z2*%
%TO.N,Net-(E1-Pin_1)*%
X97000000Y-89341400D03*
%TO.P,J1,Z3*%
%TO.N,Net-(E3-Pin_1)*%
X103000000Y-86541400D03*
%TO.P,J1,Z4*%
%TO.N,Net-(E4-Pin_1)*%
X103000000Y-89341400D03*
%TD*%
D16*
%TO.P,U3,1,SDA*%
%TO.N,SDA*%
X101450000Y-99250000D03*
%TO.P,U3,2,SCL*%
%TO.N,SCL*%
X101450000Y-99750000D03*
%TO.P,U3,3,Alert*%
%TO.N,unconnected-(U3-Alert-Pad3)*%
X101450000Y-100250000D03*
%TO.P,U3,4,GND*%
%TO.N,GND*%
X101450000Y-100750000D03*
%TO.P,U3,5,A2*%
X98550000Y-100750000D03*
%TO.P,U3,6,A1*%
X98550000Y-100250000D03*
%TO.P,U3,7,A0*%
X98550000Y-99750000D03*
%TO.P,U3,8,V_{DD}*%
%TO.N,+3V3*%
X98550000Y-99250000D03*
D17*
%TO.P,U3,9,EP/GND*%
%TO.N,GND*%
X100000000Y-100000000D03*
%TD*%
D18*
%TO.P,C1,1*%
%TO.N,+3V3*%
X96663000Y-99061000D03*
%TO.P,C1,2*%
%TO.N,GND*%
X96663000Y-100961000D03*
%TD*%
D19*
%TO.N,Net-(E9-Pin_1)*%
X85850000Y-100000000D03*
%TO.N,Net-(E10-Pin_1)*%
X114149998Y-100000000D03*
%TO.N,Net-(E5-Pin_1)*%
X111447589Y-108317159D03*
%TO.N,Net-(E8-Pin_1)*%
X88552399Y-108317147D03*
%TO.N,Net-(E7-Pin_1)*%
X95627390Y-113457441D03*
%TO.N,Net-(E6-Pin_1)*%
X104372589Y-113457447D03*
%TO.N,Net-(E4-Pin_1)*%
X111447588Y-91682840D03*
%TO.N,Net-(E3-Pin_1)*%
X104372591Y-86542551D03*
%TO.N,Net-(E2-Pin_1)*%
X95627414Y-86542551D03*
%TO.N,Net-(E1-Pin_1)*%
X88552410Y-91682839D03*
%TD*%
D20*
%TO.N,Net-(E10-Pin_1)*%
X101500000Y-105511800D02*
X108638198Y-105511800D01*
X108638198Y-105511800D02*
X114149998Y-100000000D01*
%TO.N,Net-(E9-Pin_1)*%
X98500000Y-105511800D02*
X91361800Y-105511800D01*
X91361800Y-105511800D02*
X85850000Y-100000000D01*
D21*
%TO.N,GND*%
X98550000Y-100750000D02*
X95619200Y-100750000D01*
X95619200Y-100750000D02*
X95301000Y-100431800D01*
%TO.N,+3V3*%
X98550000Y-99250000D02*
X98550000Y-98653800D01*
X99500000Y-93675000D02*
X99500000Y-96867800D01*
X99500000Y-96867800D02*
X98550000Y-97817800D01*
X98550000Y-97817800D02*
X98550000Y-98653800D01*
%TO.N,SCL*%
X101500000Y-93675000D02*
X101500000Y-96775600D01*
X101500000Y-96775600D02*
X102514600Y-97790200D01*
X102514600Y-97790200D02*
X102514600Y-99288800D01*
X102053400Y-99750000D02*
X101450000Y-99750000D01*
X102514600Y-99288800D02*
X102053400Y-99750000D01*
%TO.N,SDA*%
X100500000Y-93675000D02*
X100500000Y-96944000D01*
X100500000Y-96944000D02*
X101450000Y-97894000D01*
X101450000Y-97894000D02*
X101450000Y-99250000D01*
D20*
%TO.N,Net-(E5-Pin_1)*%
X100500000Y-110658600D02*
X109106148Y-110658600D01*
X109106148Y-110658600D02*
X111447589Y-108317159D01*
%TO.N,Net-(E8-Pin_1)*%
X98500000Y-110658600D02*
X90893852Y-110658600D01*
X90893852Y-110658600D02*
X88552399Y-108317147D01*
%TO.N,Net-(E7-Pin_1)*%
X99500000Y-113458600D02*
X95628549Y-113458600D01*
X95628549Y-113458600D02*
X95627390Y-113457441D01*
%TO.N,Net-(E6-Pin_1)*%
X101500000Y-113458600D02*
X104371436Y-113458600D01*
X104371436Y-113458600D02*
X104372589Y-113457447D01*
%TO.N,Net-(E1-Pin_1)*%
X99500000Y-89341400D02*
X90893849Y-89341400D01*
X90893849Y-89341400D02*
X88552410Y-91682839D01*
%TO.N,Net-(E4-Pin_1)*%
X101500000Y-89341400D02*
X109106148Y-89341400D01*
X109106148Y-89341400D02*
X111447588Y-91682840D01*
%TO.N,Net-(E3-Pin_1)*%
X100500000Y-86541400D02*
X104371440Y-86541400D01*
X104371440Y-86541400D02*
X104372591Y-86542551D01*
%TO.N,Net-(E2-Pin_1)*%
X98500000Y-86541400D02*
X95628565Y-86541400D01*
X95628565Y-86541400D02*
X95627414Y-86542551D01*
D21*
%TO.N,+3V3*%
X98550000Y-98653800D02*
X98550000Y-98503600D01*
X98550000Y-99250000D02*
X96851999Y-99250000D01*
X96851999Y-99250000D02*
G75*
G02*
X96663000Y-99061001I1J189000D01*
G01*
%TO.N,GND*%
X99097000Y-101707000D02*
X100950000Y-101707000D01*
X101445000Y-101212000D02*
X101445000Y-100755000D01*
X101445000Y-100755000D02*
X101450000Y-100750000D01*
X98550000Y-100750000D02*
X96873999Y-100750000D01*
X98550000Y-99750000D02*
X98550000Y-101160000D01*
X98550000Y-101160000D02*
G75*
G03*
X99097000Y-101707000I547000J0D01*
G01*
X100950000Y-101707000D02*
G75*
G03*
X101445000Y-101212000I0J495000D01*
G01*
X95301000Y-98399800D02*
X95301000Y-100431800D01*
X98500000Y-96953400D02*
X97536200Y-97917200D01*
X95783600Y-97917200D02*
X95301000Y-98399800D01*
X98500000Y-93675000D02*
X98500000Y-96953400D01*
X97536200Y-97917200D02*
X95783600Y-97917200D01*
%TD*%
M02*
