%TF.GenerationSoftware,KiCad,Pcbnew,9.0.1*%
%TF.CreationDate,2025-10-29T11:23:24-07:00*%
%TF.ProjectId,theConductor,74686543-6f6e-4647-9563-746f722e6b69,rev?*%
%TF.SameCoordinates,Original*%
%TF.FileFunction,Legend,Bot*%
%TF.FilePolarity,Positive*%
%FSLAX46Y46*%
G04 Gerber Fmt 4.6, Leading zero omitted, Abs format (unit mm)*
G04 Created by KiCad (PCBNEW 9.0.1) date 2025-10-29 11:23:24*
%MOMM*%
%LPD*%
G01*
G04 APERTURE LIST*
%ADD10C,0.150000*%
%ADD11C,0.120000*%
%ADD12C,0.200000*%
G04 APERTURE END LIST*
D10*
X100333333Y-97754818D02*
X100333333Y-98469103D01*
X100333333Y-98469103D02*
X100380952Y-98611960D01*
X100380952Y-98611960D02*
X100476190Y-98707199D01*
X100476190Y-98707199D02*
X100619047Y-98754818D01*
X100619047Y-98754818D02*
X100714285Y-98754818D01*
X99428571Y-98088151D02*
X99428571Y-98754818D01*
X99666666Y-97707199D02*
X99904761Y-98421484D01*
X99904761Y-98421484D02*
X99285714Y-98421484D01*
X95954819Y-105178466D02*
X96669104Y-105178466D01*
X96669104Y-105178466D02*
X96811961Y-105130847D01*
X96811961Y-105130847D02*
X96907200Y-105035609D01*
X96907200Y-105035609D02*
X96954819Y-104892752D01*
X96954819Y-104892752D02*
X96954819Y-104797514D01*
X95954819Y-105559419D02*
X95954819Y-106178466D01*
X95954819Y-106178466D02*
X96335771Y-105845133D01*
X96335771Y-105845133D02*
X96335771Y-105987990D01*
X96335771Y-105987990D02*
X96383390Y-106083228D01*
X96383390Y-106083228D02*
X96431009Y-106130847D01*
X96431009Y-106130847D02*
X96526247Y-106178466D01*
X96526247Y-106178466D02*
X96764342Y-106178466D01*
X96764342Y-106178466D02*
X96859580Y-106130847D01*
X96859580Y-106130847D02*
X96907200Y-106083228D01*
X96907200Y-106083228D02*
X96954819Y-105987990D01*
X96954819Y-105987990D02*
X96954819Y-105702276D01*
X96954819Y-105702276D02*
X96907200Y-105607038D01*
X96907200Y-105607038D02*
X96859580Y-105559419D01*
X109266666Y-110612895D02*
X109266666Y-111184323D01*
X109266666Y-111184323D02*
X109304761Y-111298609D01*
X109304761Y-111298609D02*
X109380952Y-111374800D01*
X109380952Y-111374800D02*
X109495237Y-111412895D01*
X109495237Y-111412895D02*
X109571428Y-111412895D01*
X108923809Y-110689085D02*
X108885713Y-110650990D01*
X108885713Y-110650990D02*
X108809523Y-110612895D01*
X108809523Y-110612895D02*
X108619047Y-110612895D01*
X108619047Y-110612895D02*
X108542856Y-110650990D01*
X108542856Y-110650990D02*
X108504761Y-110689085D01*
X108504761Y-110689085D02*
X108466666Y-110765276D01*
X108466666Y-110765276D02*
X108466666Y-110841466D01*
X108466666Y-110841466D02*
X108504761Y-110955752D01*
X108504761Y-110955752D02*
X108961904Y-111412895D01*
X108961904Y-111412895D02*
X108466666Y-111412895D01*
X106472266Y-88173695D02*
X106472266Y-88745123D01*
X106472266Y-88745123D02*
X106510361Y-88859409D01*
X106510361Y-88859409D02*
X106586552Y-88935600D01*
X106586552Y-88935600D02*
X106700837Y-88973695D01*
X106700837Y-88973695D02*
X106777028Y-88973695D01*
X105672266Y-88973695D02*
X106129409Y-88973695D01*
X105900837Y-88973695D02*
X105900837Y-88173695D01*
X105900837Y-88173695D02*
X105977028Y-88287980D01*
X105977028Y-88287980D02*
X106053218Y-88364171D01*
X106053218Y-88364171D02*
X106129409Y-88402266D01*
X100745904Y-97531819D02*
X100745904Y-98341342D01*
X100745904Y-98341342D02*
X100698285Y-98436580D01*
X100698285Y-98436580D02*
X100650666Y-98484200D01*
X100650666Y-98484200D02*
X100555428Y-98531819D01*
X100555428Y-98531819D02*
X100364952Y-98531819D01*
X100364952Y-98531819D02*
X100269714Y-98484200D01*
X100269714Y-98484200D02*
X100222095Y-98436580D01*
X100222095Y-98436580D02*
X100174476Y-98341342D01*
X100174476Y-98341342D02*
X100174476Y-97531819D01*
X99793523Y-97531819D02*
X99174476Y-97531819D01*
X99174476Y-97531819D02*
X99507809Y-97912771D01*
X99507809Y-97912771D02*
X99364952Y-97912771D01*
X99364952Y-97912771D02*
X99269714Y-97960390D01*
X99269714Y-97960390D02*
X99222095Y-98008009D01*
X99222095Y-98008009D02*
X99174476Y-98103247D01*
X99174476Y-98103247D02*
X99174476Y-98341342D01*
X99174476Y-98341342D02*
X99222095Y-98436580D01*
X99222095Y-98436580D02*
X99269714Y-98484200D01*
X99269714Y-98484200D02*
X99364952Y-98531819D01*
X99364952Y-98531819D02*
X99650666Y-98531819D01*
X99650666Y-98531819D02*
X99745904Y-98484200D01*
X99745904Y-98484200D02*
X99793523Y-98436580D01*
X95342581Y-99844333D02*
X95390201Y-99796714D01*
X95390201Y-99796714D02*
X95437820Y-99653857D01*
X95437820Y-99653857D02*
X95437820Y-99558619D01*
X95437820Y-99558619D02*
X95390201Y-99415762D01*
X95390201Y-99415762D02*
X95294962Y-99320524D01*
X95294962Y-99320524D02*
X95199724Y-99272905D01*
X95199724Y-99272905D02*
X95009248Y-99225286D01*
X95009248Y-99225286D02*
X94866391Y-99225286D01*
X94866391Y-99225286D02*
X94675915Y-99272905D01*
X94675915Y-99272905D02*
X94580677Y-99320524D01*
X94580677Y-99320524D02*
X94485439Y-99415762D01*
X94485439Y-99415762D02*
X94437820Y-99558619D01*
X94437820Y-99558619D02*
X94437820Y-99653857D01*
X94437820Y-99653857D02*
X94485439Y-99796714D01*
X94485439Y-99796714D02*
X94533058Y-99844333D01*
X95437820Y-100796714D02*
X95437820Y-100225286D01*
X95437820Y-100511000D02*
X94437820Y-100511000D01*
X94437820Y-100511000D02*
X94580677Y-100415762D01*
X94580677Y-100415762D02*
X94675915Y-100320524D01*
X94675915Y-100320524D02*
X94723534Y-100225286D01*
D11*
%TO.C,J4*%
X96890000Y-95040000D02*
X96889999Y-93890000D01*
X96889999Y-93890000D02*
X97940001Y-93890000D01*
X97940001Y-93890000D02*
X97940000Y-92900000D01*
X98060000Y-97010000D02*
X101940000Y-97010000D01*
X103110000Y-95040000D02*
X103110001Y-93890000D01*
X103110001Y-93890000D02*
X102059999Y-93890000D01*
%TO.C,J3*%
X101500000Y-107011800D02*
X101500000Y-106211800D01*
X101300000Y-107011800D02*
X101500000Y-107011800D01*
X98500000Y-107011800D02*
X98700000Y-107011800D01*
X101500000Y-106211800D02*
X102000000Y-106211800D01*
X98500000Y-106211800D02*
X98500000Y-107011800D01*
X101500000Y-104811800D02*
X102000000Y-104811800D01*
X101500000Y-104811800D02*
X101500000Y-104211800D01*
X101500000Y-104211800D02*
X101300000Y-104011800D01*
X98700000Y-104011800D02*
X98500000Y-104011800D01*
X98500000Y-104011800D02*
X98500000Y-104811800D01*
D12*
%TO.C,J2*%
X105500000Y-110818600D02*
X105500000Y-113308600D01*
X105500000Y-110818600D02*
X103750000Y-110358600D01*
X105500000Y-113308600D02*
X103750000Y-113308600D01*
X102250000Y-110008600D02*
X101150000Y-110008600D01*
X100160000Y-113308600D02*
X100850000Y-113308600D01*
X99840000Y-110008600D02*
X99150000Y-110008600D01*
X97750000Y-113308600D02*
X98850000Y-113308600D01*
X96250000Y-113308600D02*
X94500000Y-113308600D01*
X94500000Y-110818600D02*
X96200000Y-110358600D01*
X94500000Y-113308600D02*
X94500000Y-110818600D01*
X102200000Y-112358600D02*
G75*
G02*
X102000000Y-112358600I-100000J0D01*
G01*
X102000000Y-112358600D02*
G75*
G02*
X102200000Y-112358600I100000J0D01*
G01*
%TO.C,J1*%
X94500000Y-89181400D02*
X94500000Y-86691400D01*
X94500000Y-89181400D02*
X96250000Y-89641400D01*
X94500000Y-86691400D02*
X96250000Y-86691400D01*
X97750000Y-89991400D02*
X98850000Y-89991400D01*
X99840000Y-86691400D02*
X99150000Y-86691400D01*
X100160000Y-89991400D02*
X100850000Y-89991400D01*
X102250000Y-86691400D02*
X101150000Y-86691400D01*
X103750000Y-86691400D02*
X105500000Y-86691400D01*
X105500000Y-89181400D02*
X103800000Y-89641400D01*
X105500000Y-86691400D02*
X105500000Y-89181400D01*
X98000000Y-87641400D02*
G75*
G02*
X97800000Y-87641400I-100000J0D01*
G01*
X97800000Y-87641400D02*
G75*
G02*
X98000000Y-87641400I100000J0D01*
G01*
D11*
%TO.C,U3*%
X101500000Y-98865000D02*
X98500000Y-98865000D01*
X101500000Y-101135000D02*
X98500000Y-101135000D01*
X102300000Y-98950000D02*
X102020000Y-98950000D01*
X102020000Y-98670000D01*
X102300000Y-98950000D01*
G36*
X102300000Y-98950000D02*
G01*
X102020000Y-98950000D01*
X102020000Y-98670000D01*
X102300000Y-98950000D01*
G37*
%TO.C,C1*%
X95928000Y-99749748D02*
X95928000Y-100272252D01*
X97398000Y-99749748D02*
X97398000Y-100272252D01*
%TD*%
M02*
