%TF.GenerationSoftware,KiCad,Pcbnew,8.0.8*%
%TF.CreationDate,2025-04-20T20:40:11-07:00*%
%TF.ProjectId,theConductor,74686543-6f6e-4647-9563-746f722e6b69,rev?*%
%TF.SameCoordinates,Original*%
%TF.FileFunction,Copper,L2,Bot*%
%TF.FilePolarity,Positive*%
%FSLAX46Y46*%
G04 Gerber Fmt 4.6, Leading zero omitted, Abs format (unit mm)*
G04 Created by KiCad (PCBNEW 8.0.8) date 2025-04-20 20:40:11*
%MOMM*%
%LPD*%
G01*
G04 APERTURE LIST*
G04 Aperture macros list*
%AMRoundRect*
0 Rectangle with rounded corners*
0 $1 Rounding radius*
0 $2 $3 $4 $5 $6 $7 $8 $9 X,Y pos of 4 corners*
0 Add a 4 corners polygon primitive as box body*
4,1,4,$2,$3,$4,$5,$6,$7,$8,$9,$2,$3,0*
0 Add four circle primitives for the rounded corners*
1,1,$1+$1,$2,$3*
1,1,$1+$1,$4,$5*
1,1,$1+$1,$6,$7*
1,1,$1+$1,$8,$9*
0 Add four rect primitives between the rounded corners*
20,1,$1+$1,$2,$3,$4,$5,0*
20,1,$1+$1,$4,$5,$6,$7,0*
20,1,$1+$1,$6,$7,$8,$9,0*
20,1,$1+$1,$8,$9,$2,$3,0*%
%AMFreePoly0*
4,1,32,1.175354,2.110354,1.175500,2.110000,1.175500,1.179300,1.175354,1.178946,1.175216,1.178849,1.072307,1.129519,0.884240,1.000302,0.721729,0.840131,0.589799,0.653957,0.492537,0.447555,0.432946,0.227290,0.412876,-0.000001,0.432947,-0.227290,0.492537,-0.447556,0.589799,-0.653958,0.721729,-0.840131,0.884239,-1.000302,1.072307,-1.129519,1.175216,-1.178849,1.175472,-1.179134,
1.175500,-1.179300,1.175500,-2.110001,1.175354,-2.110354,1.175000,-2.110500,-0.395000,-2.110500,-0.395354,-2.110354,-0.395500,-2.110000,-0.395500,2.110000,-0.395354,2.110355,-0.395000,2.110500,1.175000,2.110499,1.175354,2.110354,1.175354,2.110354,$1*%
%AMFreePoly1*
4,1,32,0.435354,2.110354,0.435500,2.110000,0.435500,-2.110000,0.435354,-2.110354,0.435000,-2.110500,-1.135000,-2.110500,-1.135354,-2.110354,-1.135500,-2.109999,-1.135500,-1.179300,-1.135354,-1.178947,-1.135216,-1.178849,-1.032307,-1.129519,-0.844240,-1.000302,-0.681729,-0.840132,-0.549799,-0.653958,-0.452537,-0.447555,-0.392946,-0.227289,-0.372876,0.000000,-0.392946,0.227290,-0.452537,0.447555,
-0.549799,0.653958,-0.681729,0.840131,-0.844240,1.000302,-1.032307,1.129519,-1.135216,1.178850,-1.135472,1.179134,-1.135500,1.179300,-1.135500,2.110000,-1.135354,2.110354,-1.135000,2.110500,0.435000,2.110500,0.435354,2.110354,0.435354,2.110354,$1*%
G04 Aperture macros list end*
%TA.AperFunction,Conductor*%
%ADD10C,0.300000*%
%TD*%
%TA.AperFunction,Conductor*%
%ADD11C,0.200000*%
%TD*%
%TA.AperFunction,SMDPad,CuDef*%
%ADD12C,1.470000*%
%TD*%
%TA.AperFunction,SMDPad,CuDef*%
%ADD13FreePoly0,50.000000*%
%TD*%
%TA.AperFunction,SMDPad,CuDef*%
%ADD14FreePoly1,50.000000*%
%TD*%
%TA.AperFunction,SMDPad,CuDef*%
%ADD15FreePoly0,310.000000*%
%TD*%
%TA.AperFunction,SMDPad,CuDef*%
%ADD16FreePoly1,310.000000*%
%TD*%
%TA.AperFunction,SMDPad,CuDef*%
%ADD17RoundRect,0.250000X-0.475000X0.250000X-0.475000X-0.250000X0.475000X-0.250000X0.475000X0.250000X0*%
%TD*%
%TA.AperFunction,SMDPad,CuDef*%
%ADD18RoundRect,0.200000X0.023558X-0.339220X0.329975X-0.082105X-0.023558X0.339220X-0.329975X0.082105X0*%
%TD*%
%TA.AperFunction,SMDPad,CuDef*%
%ADD19RoundRect,0.200000X0.275000X-0.200000X0.275000X0.200000X-0.275000X0.200000X-0.275000X-0.200000X0*%
%TD*%
%TA.AperFunction,SMDPad,CuDef*%
%ADD20RoundRect,0.200000X0.329975X0.082105X0.023558X0.339220X-0.329975X-0.082105X-0.023558X-0.339220X0*%
%TD*%
%TA.AperFunction,SMDPad,CuDef*%
%ADD21FreePoly0,270.000000*%
%TD*%
%TA.AperFunction,SMDPad,CuDef*%
%ADD22FreePoly1,270.000000*%
%TD*%
%TA.AperFunction,SMDPad,CuDef*%
%ADD23RoundRect,0.062500X0.337500X0.062500X-0.337500X0.062500X-0.337500X-0.062500X0.337500X-0.062500X0*%
%TD*%
%TA.AperFunction,HeatsinkPad*%
%ADD24R,1.700000X1.400000*%
%TD*%
%TA.AperFunction,SMDPad,CuDef*%
%ADD25FreePoly0,90.000000*%
%TD*%
%TA.AperFunction,SMDPad,CuDef*%
%ADD26FreePoly1,90.000000*%
%TD*%
%TA.AperFunction,SMDPad,CuDef*%
%ADD27FreePoly0,180.000000*%
%TD*%
%TA.AperFunction,SMDPad,CuDef*%
%ADD28FreePoly1,180.000000*%
%TD*%
%TA.AperFunction,SMDPad,CuDef*%
%ADD29RoundRect,0.250000X0.350000X1.287500X-0.350000X1.287500X-0.350000X-1.287500X0.350000X-1.287500X0*%
%TD*%
%TA.AperFunction,SMDPad,CuDef*%
%ADD30RoundRect,0.250000X0.350000X1.325000X-0.350000X1.325000X-0.350000X-1.325000X0.350000X-1.325000X0*%
%TD*%
%TA.AperFunction,SMDPad,CuDef*%
%ADD31RoundRect,0.150000X0.150000X0.625000X-0.150000X0.625000X-0.150000X-0.625000X0.150000X-0.625000X0*%
%TD*%
%TA.AperFunction,ViaPad*%
%ADD32C,0.600000*%
%TD*%
%TA.AperFunction,Conductor*%
%ADD33C,0.400000*%
%TD*%
G04 APERTURE END LIST*
D10*
%TO.N,Net-(E4-E)*%
X86262316Y-111517147D02*
X88508000Y-109640000D01*
%TO.N,Net-(E6-E)*%
X115243836Y-92420770D02*
X115956000Y-91814000D01*
X111498032Y-109632802D02*
X113749681Y-111519185D01*
D11*
%TO.N,Net-(E5-E)*%
X100007082Y-114999853D02*
X100000000Y-119000155D01*
D10*
X96081000Y-83371000D02*
X96064000Y-81406000D01*
%TO.N,Net-(E4-E)*%
X84659165Y-92452770D02*
X84014000Y-91897000D01*
%TO.N,Net-(E5-E)*%
X100000000Y-119000155D02*
G75*
G02*
X96064000Y-81405999I0J19003122D01*
G01*
%TO.N,Net-(E4-E)*%
X86262316Y-111517147D02*
G75*
G02*
X84014000Y-91897000I13732124J11512488D01*
G01*
%TO.N,Net-(E6-E)*%
X115956000Y-91814000D02*
G75*
G02*
X113749681Y-111519185I-15951077J-8190124D01*
G01*
%TO.N,Net-(J3-Ext)*%
X112618227Y-91702189D02*
X114018165Y-93449230D01*
%TO.N,Net-(J1-Ext)*%
X87383122Y-91700578D02*
X85884836Y-93481230D01*
%TD*%
D12*
%TO.P,J6,1,In*%
%TO.N,Net-(E6-E)*%
X111498032Y-109632802D03*
D13*
%TO.P,J6,2,Ext*%
%TO.N,unconnected-(J6-Ext-Pad2)*%
X110398865Y-110942738D03*
D14*
X112571487Y-108353508D03*
%TD*%
D12*
%TO.P,J4,1,In*%
%TO.N,Net-(E4-E)*%
X88508000Y-109640000D03*
D15*
%TO.P,J4,2,Ext*%
%TO.N,unconnected-(J4-Ext-Pad2)*%
X87408833Y-108330064D03*
D16*
X89581455Y-110919294D03*
%TD*%
D17*
%TO.P,C1,2*%
%TO.N,GND*%
X96661000Y-96438999D03*
%TO.P,C1,1*%
%TO.N,+3V3*%
X96661000Y-94539001D03*
%TD*%
D18*
%TO.P,R3,1*%
%TO.N,Net-(J3-Ext)*%
X113999013Y-93465300D03*
%TO.P,R3,2*%
%TO.N,Net-(E6-E)*%
X115262987Y-92404700D03*
%TD*%
D19*
%TO.P,R2,1*%
%TO.N,Net-(J2-Ext)*%
X96081000Y-84996000D03*
%TO.P,R2,2*%
%TO.N,Net-(E5-E)*%
X96081000Y-83346000D03*
%TD*%
D20*
%TO.P,R1,1*%
%TO.N,Net-(J1-Ext)*%
X85903987Y-93497300D03*
%TO.P,R1,2*%
%TO.N,Net-(E4-E)*%
X84640013Y-92436700D03*
%TD*%
D12*
%TO.P,J8,1,In*%
%TO.N,Net-(J8-In)*%
X100000000Y-107500000D03*
D21*
%TO.P,J8,2,Ext*%
%TO.N,Net-(J8-Ext)*%
X100000000Y-105790000D03*
D22*
X100000000Y-109170000D03*
%TD*%
D23*
%TO.P,U3,1,SDA*%
%TO.N,SDA*%
X101448000Y-94728000D03*
%TO.P,U3,2,SCL*%
%TO.N,SCL*%
X101448000Y-95228000D03*
%TO.P,U3,3,Alert*%
%TO.N,unconnected-(U3-Alert-Pad3)*%
X101448000Y-95728000D03*
%TO.P,U3,4,GND*%
%TO.N,GND*%
X101448000Y-96228000D03*
%TO.P,U3,5,A2*%
X98548000Y-96228000D03*
%TO.P,U3,6,A1*%
X98548000Y-95728000D03*
%TO.P,U3,7,A0*%
X98548000Y-95228000D03*
%TO.P,U3,8,V_{DD}*%
%TO.N,+3V3*%
X98548000Y-94728000D03*
D24*
%TO.P,U3,9,EP/GND*%
%TO.N,GND*%
X99998000Y-95478000D03*
%TD*%
D12*
%TO.P,J7,1,In*%
%TO.N,Net-(J7-In)*%
X100000000Y-100000000D03*
D25*
%TO.P,J7,2,Ext*%
%TO.N,Net-(J7-Ext)*%
X100000000Y-101710000D03*
D26*
X100000000Y-98330000D03*
%TD*%
D12*
%TO.P,J5,1,In*%
%TO.N,Net-(E5-E)*%
X100007082Y-114999853D03*
D27*
%TO.P,J5,2,Ext*%
%TO.N,unconnected-(J5-Ext-Pad2)*%
X101717082Y-114999853D03*
D28*
X98337082Y-114999853D03*
%TD*%
D16*
%TO.P,J3,2,Ext*%
%TO.N,Net-(J3-Ext)*%
X112566804Y-91640905D03*
D15*
X110394182Y-89051675D03*
D12*
%TO.P,J3,1,In*%
%TO.N,Net-(E3-E)*%
X111493349Y-90361611D03*
%TD*%
%TO.P,J2,1,In*%
%TO.N,Net-(E2-E)*%
X100045436Y-85000215D03*
D27*
%TO.P,J2,2,Ext*%
%TO.N,Net-(J2-Ext)*%
X101755436Y-85000215D03*
D28*
X98375436Y-85000215D03*
%TD*%
D12*
%TO.P,J1,1,In*%
%TO.N,Net-(E1-E)*%
X88508000Y-90360000D03*
D13*
%TO.P,J1,2,Ext*%
%TO.N,Net-(J1-Ext)*%
X87408833Y-91669936D03*
D14*
X89581455Y-89080706D03*
%TD*%
D29*
%TO.P,J9,MP,MountPin*%
%TO.N,unconnected-(J9-MountPin-PadMP)*%
X103728000Y-98165501D03*
D30*
X109328000Y-98128000D03*
D31*
%TO.P,J9,4,Pin_4*%
%TO.N,SCL*%
X105028001Y-94928000D03*
%TO.P,J9,3,Pin_3*%
%TO.N,SDA*%
X106028000Y-94928000D03*
%TO.P,J9,2,Pin_2*%
%TO.N,+3V3*%
X107028000Y-94928000D03*
%TO.P,J9,1,Pin_1*%
%TO.N,GND*%
X108028000Y-94928000D03*
%TD*%
D32*
%TO.N,Net-(E3-E)*%
X111493349Y-90361611D03*
%TO.N,Net-(E2-E)*%
X100045436Y-85000215D03*
%TO.N,Net-(E1-E)*%
X88508000Y-90360000D03*
%TO.N,Net-(E4-E)*%
X88508000Y-109640000D03*
%TO.N,Net-(E5-E)*%
X100007082Y-114999853D03*
%TO.N,Net-(E6-E)*%
X111498032Y-109632802D03*
%TO.N,Net-(J7-Ext)*%
X85019999Y-99990000D03*
%TO.N,Net-(J8-In)*%
X83000000Y-102500000D03*
%TO.N,Net-(J8-Ext)*%
X117000000Y-102500000D03*
%TO.N,Net-(J7-In)*%
X114990000Y-100000000D03*
%TD*%
D10*
%TO.N,Net-(J2-Ext)*%
X98375436Y-85000215D02*
X96085215Y-85000215D01*
D11*
X96085215Y-85000215D02*
X96081000Y-84996000D01*
%TO.N,GND*%
X98548000Y-96228000D02*
X96871999Y-96228000D01*
X96871999Y-96228000D02*
G75*
G03*
X96661000Y-96438999I1J-211000D01*
G01*
%TO.N,+3V3*%
X98548000Y-94728000D02*
X96849999Y-94728000D01*
X96849999Y-94728000D02*
G75*
G02*
X96661000Y-94539001I1J189000D01*
G01*
%TO.N,GND*%
X100948000Y-97185000D02*
G75*
G03*
X101443000Y-96690000I0J495000D01*
G01*
X99095000Y-97185000D02*
X100948000Y-97185000D01*
X98548000Y-95228000D02*
X98548000Y-96638000D01*
X98548000Y-96638000D02*
G75*
G03*
X99095000Y-97185000I547000J0D01*
G01*
X101443000Y-96690000D02*
X101443000Y-96233000D01*
X101443000Y-96233000D02*
X101448000Y-96228000D01*
%TO.N,+3V3*%
X106383000Y-92256000D02*
G75*
G02*
X107019000Y-92892000I0J-636000D01*
G01*
X99172000Y-92256000D02*
X106383000Y-92256000D01*
X98548000Y-94728000D02*
X98548000Y-92880000D01*
X98548000Y-92880000D02*
G75*
G02*
X99172000Y-92256000I624000J0D01*
G01*
X107019000Y-92892000D02*
X107019000Y-94919000D01*
X107019000Y-94919000D02*
G75*
G03*
X107028000Y-94928000I9000J0D01*
G01*
%TO.N,GND*%
X107335000Y-96228000D02*
G75*
G03*
X108022000Y-95541000I0J687000D01*
G01*
X108022000Y-95541000D02*
X108022000Y-94652000D01*
X108022000Y-94652000D02*
X108023000Y-94651000D01*
X101448000Y-96228000D02*
X107335000Y-96228000D01*
%TO.N,SCL*%
X104710000Y-95220000D02*
G75*
G03*
X105023000Y-94906999I0J313000D01*
G01*
X105023001Y-94906999D02*
X105023001Y-94651000D01*
X101448000Y-95228000D02*
X104710000Y-95220000D01*
%TO.N,SDA*%
X105294000Y-92935000D02*
G75*
G02*
X106015000Y-93656000I0J-721000D01*
G01*
X103701000Y-93925000D02*
X103701000Y-93694000D01*
X104460000Y-92935000D02*
X105294000Y-92935000D01*
X106015000Y-94643000D02*
X106023000Y-94651000D01*
X102898000Y-94728000D02*
G75*
G03*
X103701000Y-93925000I0J803000D01*
G01*
X101448000Y-94728000D02*
X102898000Y-94728000D01*
X103701000Y-93694000D02*
G75*
G02*
X104460000Y-92935000I759000J0D01*
G01*
X106015000Y-93656000D02*
X106015000Y-94643000D01*
D33*
%TO.N,Net-(J7-In)*%
X100000000Y-100000000D02*
X114990000Y-100000000D01*
%TO.N,Net-(J7-Ext)*%
X85018000Y-99988000D02*
X90411049Y-99988000D01*
X90411049Y-99988000D02*
G75*
G03*
X92508986Y-99118986I-49J2967000D01*
G01*
X92509000Y-100869000D02*
G75*
G03*
X90386907Y-99989997I-2122100J-2122100D01*
G01*
X90386907Y-99990000D02*
X85019999Y-99990000D01*
X100000000Y-101710000D02*
X94539353Y-101710000D01*
X94539353Y-101710000D02*
G75*
G02*
X92509014Y-100868986I47J2871400D01*
G01*
X100000000Y-98330000D02*
X94413814Y-98330000D01*
X94413814Y-98330000D02*
G75*
G03*
X92508996Y-99118996I-14J-2693800D01*
G01*
%TO.N,Net-(J8-Ext)*%
X116994000Y-102499000D02*
X112421304Y-102499000D01*
X112421304Y-102499000D02*
G75*
G03*
X108496999Y-104124499I-4J-5549800D01*
G01*
X100000000Y-105790000D02*
X104476128Y-105790000D01*
X104476128Y-105790000D02*
G75*
G03*
X108496992Y-104124492I-28J5686400D01*
G01*
%TO.N,Net-(J8-In)*%
X97514563Y-107500000D02*
G75*
G02*
X91508011Y-105011989I37J8494600D01*
G01*
X100000000Y-107500000D02*
X97514563Y-107500000D01*
X91508000Y-105012000D02*
G75*
G03*
X85443496Y-102500002I-6064500J-6064500D01*
G01*
X85443496Y-102500000D02*
X83000000Y-102500000D01*
%TD*%
M02*
