%TF.GenerationSoftware,KiCad,Pcbnew,8.0.8*%
%TF.CreationDate,2025-04-20T20:40:11-07:00*%
%TF.ProjectId,theConductor,74686543-6f6e-4647-9563-746f722e6b69,rev?*%
%TF.SameCoordinates,Original*%
%TF.FileFunction,Paste,Bot*%
%TF.FilePolarity,Positive*%
%FSLAX46Y46*%
G04 Gerber Fmt 4.6, Leading zero omitted, Abs format (unit mm)*
G04 Created by KiCad (PCBNEW 8.0.8) date 2025-04-20 20:40:11*
%MOMM*%
%LPD*%
G01*
G04 APERTURE LIST*
G04 Aperture macros list*
%AMRoundRect*
0 Rectangle with rounded corners*
0 $1 Rounding radius*
0 $2 $3 $4 $5 $6 $7 $8 $9 X,Y pos of 4 corners*
0 Add a 4 corners polygon primitive as box body*
4,1,4,$2,$3,$4,$5,$6,$7,$8,$9,$2,$3,0*
0 Add four circle primitives for the rounded corners*
1,1,$1+$1,$2,$3*
1,1,$1+$1,$4,$5*
1,1,$1+$1,$6,$7*
1,1,$1+$1,$8,$9*
0 Add four rect primitives between the rounded corners*
20,1,$1+$1,$2,$3,$4,$5,0*
20,1,$1+$1,$4,$5,$6,$7,0*
20,1,$1+$1,$6,$7,$8,$9,0*
20,1,$1+$1,$8,$9,$2,$3,0*%
G04 Aperture macros list end*
%ADD10C,0.001000*%
%ADD11C,1.470000*%
%ADD12RoundRect,0.250000X-0.475000X0.250000X-0.475000X-0.250000X0.475000X-0.250000X0.475000X0.250000X0*%
%ADD13RoundRect,0.200000X0.023558X-0.339220X0.329975X-0.082105X-0.023558X0.339220X-0.329975X0.082105X0*%
%ADD14RoundRect,0.200000X0.275000X-0.200000X0.275000X0.200000X-0.275000X0.200000X-0.275000X-0.200000X0*%
%ADD15RoundRect,0.200000X0.329975X0.082105X0.023558X0.339220X-0.329975X-0.082105X-0.023558X-0.339220X0*%
%ADD16RoundRect,0.140000X0.205000X0.140000X-0.205000X0.140000X-0.205000X-0.140000X0.205000X-0.140000X0*%
%ADD17RoundRect,0.062500X0.337500X0.062500X-0.337500X0.062500X-0.337500X-0.062500X0.337500X-0.062500X0*%
%ADD18RoundRect,0.250000X0.350000X1.287500X-0.350000X1.287500X-0.350000X-1.287500X0.350000X-1.287500X0*%
%ADD19RoundRect,0.250000X0.350000X1.325000X-0.350000X1.325000X-0.350000X-1.325000X0.350000X-1.325000X0*%
%ADD20RoundRect,0.150000X0.150000X0.625000X-0.150000X0.625000X-0.150000X-0.625000X0.150000X-0.625000X0*%
G04 APERTURE END LIST*
D10*
%TO.C,J6*%
X112770494Y-111398918D02*
X111761318Y-112601608D01*
X110554798Y-111589217D01*
X111149826Y-110880089D01*
X111262679Y-110909037D01*
X111494645Y-110930554D01*
X111726720Y-110910250D01*
X111951426Y-110848780D01*
X112057537Y-110800676D01*
X112770494Y-111398918D01*
G36*
X112770494Y-111398918D02*
G01*
X111761318Y-112601608D01*
X110554798Y-111589217D01*
X111149826Y-110880089D01*
X111262679Y-110909037D01*
X111494645Y-110930554D01*
X111726720Y-110910250D01*
X111951426Y-110848780D01*
X112057537Y-110800676D01*
X112770494Y-111398918D01*
G37*
X110250745Y-109284596D02*
X110221797Y-109397449D01*
X110200280Y-109629415D01*
X110220584Y-109861490D01*
X110282054Y-110086196D01*
X110330158Y-110192307D01*
X109735130Y-110901434D01*
X108528611Y-109889043D01*
X109537787Y-108686354D01*
X110250745Y-109284596D01*
G36*
X110250745Y-109284596D02*
G01*
X110221797Y-109397449D01*
X110200280Y-109629415D01*
X110220584Y-109861490D01*
X110282054Y-110086196D01*
X110330158Y-110192307D01*
X109735130Y-110901434D01*
X108528611Y-109889043D01*
X109537787Y-108686354D01*
X110250745Y-109284596D01*
G37*
X114467453Y-109376561D02*
X113458277Y-110579250D01*
X112745319Y-109981008D01*
X112774267Y-109868155D01*
X112795785Y-109636189D01*
X112775481Y-109404114D01*
X112714010Y-109179408D01*
X112665906Y-109073297D01*
X113260934Y-108364170D01*
X114467453Y-109376561D01*
G36*
X114467453Y-109376561D02*
G01*
X113458277Y-110579250D01*
X112745319Y-109981008D01*
X112774267Y-109868155D01*
X112795785Y-109636189D01*
X112775481Y-109404114D01*
X112714010Y-109179408D01*
X112665906Y-109073297D01*
X113260934Y-108364170D01*
X114467453Y-109376561D01*
G37*
X112441266Y-107676387D02*
X111846238Y-108385515D01*
X111733385Y-108356567D01*
X111501419Y-108335050D01*
X111269344Y-108355354D01*
X111044638Y-108416824D01*
X110938527Y-108464928D01*
X110225570Y-107866686D01*
X111234746Y-106663996D01*
X112441266Y-107676387D01*
G36*
X112441266Y-107676387D02*
G01*
X111846238Y-108385515D01*
X111733385Y-108356567D01*
X111501419Y-108335050D01*
X111269344Y-108355354D01*
X111044638Y-108416824D01*
X110938527Y-108464928D01*
X110225570Y-107866686D01*
X111234746Y-106663996D01*
X112441266Y-107676387D01*
G37*
%TO.C,J4*%
X87340127Y-109080495D02*
X87292022Y-109186607D01*
X87230552Y-109411312D01*
X87210248Y-109643387D01*
X87231764Y-109875353D01*
X87260712Y-109988206D01*
X86547755Y-110586448D01*
X85538578Y-109383758D01*
X86745098Y-108371368D01*
X87340127Y-109080495D01*
G36*
X87340127Y-109080495D02*
G01*
X87292022Y-109186607D01*
X87230552Y-109411312D01*
X87210248Y-109643387D01*
X87231764Y-109875353D01*
X87260712Y-109988206D01*
X86547755Y-110586448D01*
X85538578Y-109383758D01*
X86745098Y-108371368D01*
X87340127Y-109080495D01*
G37*
X89780462Y-107873884D02*
X89067505Y-108472127D01*
X88961393Y-108424022D01*
X88736688Y-108362552D01*
X88504613Y-108342248D01*
X88272647Y-108363764D01*
X88159794Y-108392712D01*
X87564766Y-107683585D01*
X88771286Y-106671195D01*
X89780462Y-107873884D01*
G36*
X89780462Y-107873884D02*
G01*
X89067505Y-108472127D01*
X88961393Y-108424022D01*
X88736688Y-108362552D01*
X88504613Y-108342248D01*
X88272647Y-108363764D01*
X88159794Y-108392712D01*
X87564766Y-107683585D01*
X88771286Y-106671195D01*
X89780462Y-107873884D01*
G37*
X88054607Y-110855978D02*
X88279312Y-110917449D01*
X88511387Y-110937753D01*
X88743353Y-110916236D01*
X88856206Y-110887288D01*
X89451234Y-111596415D01*
X88244714Y-112608805D01*
X87235538Y-111406116D01*
X87948495Y-110807873D01*
X88054607Y-110855978D01*
G36*
X88054607Y-110855978D02*
G01*
X88279312Y-110917449D01*
X88511387Y-110937753D01*
X88743353Y-110916236D01*
X88856206Y-110887288D01*
X89451234Y-111596415D01*
X88244714Y-112608805D01*
X87235538Y-111406116D01*
X87948495Y-110807873D01*
X88054607Y-110855978D01*
G37*
X91477422Y-109896242D02*
X90270902Y-110908632D01*
X89675873Y-110199505D01*
X89723978Y-110093393D01*
X89785448Y-109868688D01*
X89805752Y-109636613D01*
X89784236Y-109404647D01*
X89755288Y-109291794D01*
X90468245Y-108693552D01*
X91477422Y-109896242D01*
G36*
X91477422Y-109896242D02*
G01*
X90270902Y-110908632D01*
X89675873Y-110199505D01*
X89723978Y-110093393D01*
X89785448Y-109868688D01*
X89805752Y-109636613D01*
X89784236Y-109404647D01*
X89755288Y-109291794D01*
X90468245Y-108693552D01*
X91477422Y-109896242D01*
G37*
%TO.C,J8*%
X99465000Y-106320700D02*
X99359942Y-106371065D01*
X99168416Y-106503687D01*
X99003687Y-106668416D01*
X98871065Y-106859942D01*
X98820700Y-106965000D01*
X97890000Y-106965000D01*
X97890000Y-105395000D01*
X99465000Y-105395000D01*
X99465000Y-106320700D01*
G36*
X99465000Y-106320700D02*
G01*
X99359942Y-106371065D01*
X99168416Y-106503687D01*
X99003687Y-106668416D01*
X98871065Y-106859942D01*
X98820700Y-106965000D01*
X97890000Y-106965000D01*
X97890000Y-105395000D01*
X99465000Y-105395000D01*
X99465000Y-106320700D01*
G37*
X102110000Y-106965000D02*
X101179300Y-106965000D01*
X101128935Y-106859942D01*
X100996313Y-106668416D01*
X100831584Y-106503687D01*
X100640058Y-106371065D01*
X100535000Y-106320700D01*
X100535000Y-105395000D01*
X102110000Y-105395000D01*
X102110000Y-106965000D01*
G36*
X102110000Y-106965000D02*
G01*
X101179300Y-106965000D01*
X101128935Y-106859942D01*
X100996313Y-106668416D01*
X100831584Y-106503687D01*
X100640058Y-106371065D01*
X100535000Y-106320700D01*
X100535000Y-105395000D01*
X102110000Y-105395000D01*
X102110000Y-106965000D01*
G37*
X98871065Y-108140058D02*
X99003687Y-108331585D01*
X99168415Y-108496313D01*
X99359942Y-108628935D01*
X99465000Y-108679300D01*
X99465000Y-109605000D01*
X97890000Y-109605000D01*
X97890000Y-108035000D01*
X98820700Y-108035000D01*
X98871065Y-108140058D01*
G36*
X98871065Y-108140058D02*
G01*
X99003687Y-108331585D01*
X99168415Y-108496313D01*
X99359942Y-108628935D01*
X99465000Y-108679300D01*
X99465000Y-109605000D01*
X97890000Y-109605000D01*
X97890000Y-108035000D01*
X98820700Y-108035000D01*
X98871065Y-108140058D01*
G37*
X102110000Y-109605000D02*
X100535000Y-109605000D01*
X100535000Y-108679300D01*
X100640058Y-108628935D01*
X100831584Y-108496313D01*
X100996313Y-108331584D01*
X101128935Y-108140058D01*
X101179300Y-108035000D01*
X102110000Y-108035000D01*
X102110000Y-109605000D01*
G36*
X102110000Y-109605000D02*
G01*
X100535000Y-109605000D01*
X100535000Y-108679300D01*
X100640058Y-108628935D01*
X100831584Y-108496313D01*
X100996313Y-108331584D01*
X101128935Y-108140058D01*
X101179300Y-108035000D01*
X102110000Y-108035000D01*
X102110000Y-109605000D01*
G37*
%TO.C,J7*%
X102110000Y-102105000D02*
X100535000Y-102105000D01*
X100535000Y-101179300D01*
X100640058Y-101128935D01*
X100831584Y-100996313D01*
X100996313Y-100831584D01*
X101128935Y-100640058D01*
X101179300Y-100535000D01*
X102110000Y-100535000D01*
X102110000Y-102105000D01*
G36*
X102110000Y-102105000D02*
G01*
X100535000Y-102105000D01*
X100535000Y-101179300D01*
X100640058Y-101128935D01*
X100831584Y-100996313D01*
X100996313Y-100831584D01*
X101128935Y-100640058D01*
X101179300Y-100535000D01*
X102110000Y-100535000D01*
X102110000Y-102105000D01*
G37*
X98871065Y-100640058D02*
X99003687Y-100831584D01*
X99168416Y-100996313D01*
X99359942Y-101128935D01*
X99465000Y-101179300D01*
X99465000Y-102105000D01*
X97890000Y-102105000D01*
X97890000Y-100535000D01*
X98820700Y-100535000D01*
X98871065Y-100640058D01*
G36*
X98871065Y-100640058D02*
G01*
X99003687Y-100831584D01*
X99168416Y-100996313D01*
X99359942Y-101128935D01*
X99465000Y-101179300D01*
X99465000Y-102105000D01*
X97890000Y-102105000D01*
X97890000Y-100535000D01*
X98820700Y-100535000D01*
X98871065Y-100640058D01*
G37*
X102110000Y-99465000D02*
X101179300Y-99465000D01*
X101128935Y-99359942D01*
X100996313Y-99168415D01*
X100831585Y-99003687D01*
X100640058Y-98871065D01*
X100535000Y-98820700D01*
X100535000Y-97895000D01*
X102110000Y-97895000D01*
X102110000Y-99465000D01*
G36*
X102110000Y-99465000D02*
G01*
X101179300Y-99465000D01*
X101128935Y-99359942D01*
X100996313Y-99168415D01*
X100831585Y-99003687D01*
X100640058Y-98871065D01*
X100535000Y-98820700D01*
X100535000Y-97895000D01*
X102110000Y-97895000D01*
X102110000Y-99465000D01*
G37*
X99465000Y-98820700D02*
X99359942Y-98871065D01*
X99168416Y-99003687D01*
X99003687Y-99168416D01*
X98871065Y-99359942D01*
X98820700Y-99465000D01*
X97890000Y-99465000D01*
X97890000Y-97895000D01*
X99465000Y-97895000D01*
X99465000Y-98820700D01*
G36*
X99465000Y-98820700D02*
G01*
X99359942Y-98871065D01*
X99168416Y-99003687D01*
X99003687Y-99168416D01*
X98871065Y-99359942D01*
X98820700Y-99465000D01*
X97890000Y-99465000D01*
X97890000Y-97895000D01*
X99465000Y-97895000D01*
X99465000Y-98820700D01*
G37*
%TO.C,J5*%
X102112082Y-114464853D02*
X101186382Y-114464853D01*
X101136017Y-114359795D01*
X101003395Y-114168269D01*
X100838666Y-114003540D01*
X100647140Y-113870918D01*
X100542082Y-113820553D01*
X100542082Y-112889853D01*
X102112082Y-112889853D01*
X102112082Y-114464853D01*
G36*
X102112082Y-114464853D02*
G01*
X101186382Y-114464853D01*
X101136017Y-114359795D01*
X101003395Y-114168269D01*
X100838666Y-114003540D01*
X100647140Y-113870918D01*
X100542082Y-113820553D01*
X100542082Y-112889853D01*
X102112082Y-112889853D01*
X102112082Y-114464853D01*
G37*
X102112082Y-117109853D02*
X100542082Y-117109853D01*
X100542082Y-116179153D01*
X100647140Y-116128788D01*
X100838666Y-115996166D01*
X101003395Y-115831437D01*
X101136017Y-115639911D01*
X101186382Y-115534853D01*
X102112082Y-115534853D01*
X102112082Y-117109853D01*
G36*
X102112082Y-117109853D02*
G01*
X100542082Y-117109853D01*
X100542082Y-116179153D01*
X100647140Y-116128788D01*
X100838666Y-115996166D01*
X101003395Y-115831437D01*
X101136017Y-115639911D01*
X101186382Y-115534853D01*
X102112082Y-115534853D01*
X102112082Y-117109853D01*
G37*
X99472082Y-113820553D02*
X99367024Y-113870918D01*
X99175497Y-114003540D01*
X99010769Y-114168268D01*
X98878147Y-114359795D01*
X98827782Y-114464853D01*
X97902082Y-114464853D01*
X97902082Y-112889853D01*
X99472082Y-112889853D01*
X99472082Y-113820553D01*
G36*
X99472082Y-113820553D02*
G01*
X99367024Y-113870918D01*
X99175497Y-114003540D01*
X99010769Y-114168268D01*
X98878147Y-114359795D01*
X98827782Y-114464853D01*
X97902082Y-114464853D01*
X97902082Y-112889853D01*
X99472082Y-112889853D01*
X99472082Y-113820553D01*
G37*
X98878147Y-115639911D02*
X99010769Y-115831437D01*
X99175498Y-115996166D01*
X99367024Y-116128788D01*
X99472082Y-116179153D01*
X99472082Y-117109853D01*
X97902082Y-117109853D01*
X97902082Y-115534853D01*
X98827782Y-115534853D01*
X98878147Y-115639911D01*
G36*
X98878147Y-115639911D02*
G01*
X99010769Y-115831437D01*
X99175498Y-115996166D01*
X99367024Y-116128788D01*
X99472082Y-116179153D01*
X99472082Y-117109853D01*
X97902082Y-117109853D01*
X97902082Y-115534853D01*
X98827782Y-115534853D01*
X98878147Y-115639911D01*
G37*
%TO.C,J3*%
X114462770Y-90617852D02*
X113256251Y-91630243D01*
X112661223Y-90921116D01*
X112709327Y-90815005D01*
X112770797Y-90590299D01*
X112791101Y-90358224D01*
X112769584Y-90126258D01*
X112740636Y-90013405D01*
X113453594Y-89415163D01*
X114462770Y-90617852D01*
G36*
X114462770Y-90617852D02*
G01*
X113256251Y-91630243D01*
X112661223Y-90921116D01*
X112709327Y-90815005D01*
X112770797Y-90590299D01*
X112791101Y-90358224D01*
X112769584Y-90126258D01*
X112740636Y-90013405D01*
X113453594Y-89415163D01*
X114462770Y-90617852D01*
G37*
X111039955Y-91577589D02*
X111264661Y-91639060D01*
X111496736Y-91659364D01*
X111728702Y-91637846D01*
X111841555Y-91608898D01*
X112436583Y-92318026D01*
X111230063Y-93330417D01*
X110220887Y-92127727D01*
X110933844Y-91529485D01*
X111039955Y-91577589D01*
G36*
X111039955Y-91577589D02*
G01*
X111264661Y-91639060D01*
X111496736Y-91659364D01*
X111728702Y-91637846D01*
X111841555Y-91608898D01*
X112436583Y-92318026D01*
X111230063Y-93330417D01*
X110220887Y-92127727D01*
X110933844Y-91529485D01*
X111039955Y-91577589D01*
G37*
X112765811Y-88595495D02*
X112052854Y-89193737D01*
X111946743Y-89145633D01*
X111722037Y-89084163D01*
X111489962Y-89063859D01*
X111257996Y-89085376D01*
X111145143Y-89114324D01*
X110550115Y-88405196D01*
X111756635Y-87392805D01*
X112765811Y-88595495D01*
G36*
X112765811Y-88595495D02*
G01*
X112052854Y-89193737D01*
X111946743Y-89145633D01*
X111722037Y-89084163D01*
X111489962Y-89063859D01*
X111257996Y-89085376D01*
X111145143Y-89114324D01*
X110550115Y-88405196D01*
X111756635Y-87392805D01*
X112765811Y-88595495D01*
G37*
X110325475Y-89802106D02*
X110277371Y-89908217D01*
X110215901Y-90132923D01*
X110195597Y-90364998D01*
X110217114Y-90596964D01*
X110246062Y-90709817D01*
X109533104Y-91308059D01*
X108523928Y-90105370D01*
X109730447Y-89092979D01*
X110325475Y-89802106D01*
G36*
X110325475Y-89802106D02*
G01*
X110277371Y-89908217D01*
X110215901Y-90132923D01*
X110195597Y-90364998D01*
X110217114Y-90596964D01*
X110246062Y-90709817D01*
X109533104Y-91308059D01*
X108523928Y-90105370D01*
X109730447Y-89092979D01*
X110325475Y-89802106D01*
G37*
%TO.C,J2*%
X102150436Y-84465215D02*
X101224736Y-84465215D01*
X101174371Y-84360157D01*
X101041749Y-84168631D01*
X100877020Y-84003902D01*
X100685494Y-83871280D01*
X100580436Y-83820915D01*
X100580436Y-82890215D01*
X102150436Y-82890215D01*
X102150436Y-84465215D01*
G36*
X102150436Y-84465215D02*
G01*
X101224736Y-84465215D01*
X101174371Y-84360157D01*
X101041749Y-84168631D01*
X100877020Y-84003902D01*
X100685494Y-83871280D01*
X100580436Y-83820915D01*
X100580436Y-82890215D01*
X102150436Y-82890215D01*
X102150436Y-84465215D01*
G37*
X102150436Y-87110215D02*
X100580436Y-87110215D01*
X100580436Y-86179515D01*
X100685494Y-86129150D01*
X100877020Y-85996528D01*
X101041749Y-85831799D01*
X101174371Y-85640273D01*
X101224736Y-85535215D01*
X102150436Y-85535215D01*
X102150436Y-87110215D01*
G36*
X102150436Y-87110215D02*
G01*
X100580436Y-87110215D01*
X100580436Y-86179515D01*
X100685494Y-86129150D01*
X100877020Y-85996528D01*
X101041749Y-85831799D01*
X101174371Y-85640273D01*
X101224736Y-85535215D01*
X102150436Y-85535215D01*
X102150436Y-87110215D01*
G37*
X99510436Y-83820915D02*
X99405378Y-83871280D01*
X99213851Y-84003902D01*
X99049123Y-84168630D01*
X98916501Y-84360157D01*
X98866136Y-84465215D01*
X97940436Y-84465215D01*
X97940436Y-82890215D01*
X99510436Y-82890215D01*
X99510436Y-83820915D01*
G36*
X99510436Y-83820915D02*
G01*
X99405378Y-83871280D01*
X99213851Y-84003902D01*
X99049123Y-84168630D01*
X98916501Y-84360157D01*
X98866136Y-84465215D01*
X97940436Y-84465215D01*
X97940436Y-82890215D01*
X99510436Y-82890215D01*
X99510436Y-83820915D01*
G37*
X98916501Y-85640273D02*
X99049123Y-85831799D01*
X99213852Y-85996528D01*
X99405378Y-86129150D01*
X99510436Y-86179515D01*
X99510436Y-87110215D01*
X97940436Y-87110215D01*
X97940436Y-85535215D01*
X98866136Y-85535215D01*
X98916501Y-85640273D01*
G36*
X98916501Y-85640273D02*
G01*
X99049123Y-85831799D01*
X99213852Y-85996528D01*
X99405378Y-86129150D01*
X99510436Y-86179515D01*
X99510436Y-87110215D01*
X97940436Y-87110215D01*
X97940436Y-85535215D01*
X98866136Y-85535215D01*
X98916501Y-85640273D01*
G37*
%TO.C,J1*%
X89780462Y-92126116D02*
X88771286Y-93328805D01*
X87564766Y-92316415D01*
X88159794Y-91607288D01*
X88272647Y-91636236D01*
X88504613Y-91657752D01*
X88736688Y-91637448D01*
X88961393Y-91575978D01*
X89067505Y-91527873D01*
X89780462Y-92126116D01*
G36*
X89780462Y-92126116D02*
G01*
X88771286Y-93328805D01*
X87564766Y-92316415D01*
X88159794Y-91607288D01*
X88272647Y-91636236D01*
X88504613Y-91657752D01*
X88736688Y-91637448D01*
X88961393Y-91575978D01*
X89067505Y-91527873D01*
X89780462Y-92126116D01*
G37*
X87260712Y-90011794D02*
X87231764Y-90124647D01*
X87210248Y-90356613D01*
X87230552Y-90588688D01*
X87292022Y-90813393D01*
X87340127Y-90919505D01*
X86745098Y-91628632D01*
X85538578Y-90616242D01*
X86547755Y-89413552D01*
X87260712Y-90011794D01*
G36*
X87260712Y-90011794D02*
G01*
X87231764Y-90124647D01*
X87210248Y-90356613D01*
X87230552Y-90588688D01*
X87292022Y-90813393D01*
X87340127Y-90919505D01*
X86745098Y-91628632D01*
X85538578Y-90616242D01*
X86547755Y-89413552D01*
X87260712Y-90011794D01*
G37*
X91477422Y-90103758D02*
X90468245Y-91306448D01*
X89755288Y-90708206D01*
X89784236Y-90595353D01*
X89805753Y-90363387D01*
X89785449Y-90131312D01*
X89723978Y-89906607D01*
X89675873Y-89800495D01*
X90270902Y-89091368D01*
X91477422Y-90103758D01*
G36*
X91477422Y-90103758D02*
G01*
X90468245Y-91306448D01*
X89755288Y-90708206D01*
X89784236Y-90595353D01*
X89805753Y-90363387D01*
X89785449Y-90131312D01*
X89723978Y-89906607D01*
X89675873Y-89800495D01*
X90270902Y-89091368D01*
X91477422Y-90103758D01*
G37*
X89451234Y-88403585D02*
X88856206Y-89112712D01*
X88743353Y-89083764D01*
X88511387Y-89062248D01*
X88279312Y-89082552D01*
X88054607Y-89144022D01*
X87948495Y-89192127D01*
X87235538Y-88593884D01*
X88244714Y-87391195D01*
X89451234Y-88403585D01*
G36*
X89451234Y-88403585D02*
G01*
X88856206Y-89112712D01*
X88743353Y-89083764D01*
X88511387Y-89062248D01*
X88279312Y-89082552D01*
X88054607Y-89144022D01*
X87948495Y-89192127D01*
X87235538Y-88593884D01*
X88244714Y-87391195D01*
X89451234Y-88403585D01*
G37*
%TD*%
D11*
%TO.C,J6*%
X111498032Y-109632802D03*
%TD*%
%TO.C,J4*%
X88508000Y-109640000D03*
%TD*%
D12*
%TO.C,C1*%
X96661000Y-96438999D03*
X96661000Y-94539001D03*
%TD*%
D13*
%TO.C,R3*%
X113999013Y-93465300D03*
X115262987Y-92404700D03*
%TD*%
D14*
%TO.C,R2*%
X96081000Y-84996000D03*
X96081000Y-83346000D03*
%TD*%
D15*
%TO.C,R1*%
X85903987Y-93497300D03*
X84640013Y-92436700D03*
%TD*%
D11*
%TO.C,J8*%
X100000000Y-107500000D03*
%TD*%
D16*
%TO.C,U3*%
X100423000Y-95128000D03*
X100423000Y-95828000D03*
X99573000Y-95128000D03*
X99573000Y-95828000D03*
D17*
X101448000Y-94728000D03*
X101448000Y-95228000D03*
X101448000Y-95728000D03*
X101448000Y-96228000D03*
X98548000Y-96228000D03*
X98548000Y-95728000D03*
X98548000Y-95228000D03*
X98548000Y-94728000D03*
%TD*%
D11*
%TO.C,J7*%
X100000000Y-100000000D03*
%TD*%
%TO.C,J5*%
X100007082Y-114999853D03*
%TD*%
%TO.C,J3*%
X111493349Y-90361611D03*
%TD*%
%TO.C,J2*%
X100045436Y-85000215D03*
%TD*%
%TO.C,J1*%
X88508000Y-90360000D03*
%TD*%
D18*
%TO.C,J9*%
X103728000Y-98165501D03*
D19*
X109328000Y-98128000D03*
D20*
X105028001Y-94928000D03*
X106028000Y-94928000D03*
X107028000Y-94928000D03*
X108028000Y-94928000D03*
%TD*%
M02*
