%TF.GenerationSoftware,KiCad,Pcbnew,8.0.8*%
%TF.CreationDate,2025-04-20T20:40:11-07:00*%
%TF.ProjectId,theConductor,74686543-6f6e-4647-9563-746f722e6b69,rev?*%
%TF.SameCoordinates,Original*%
%TF.FileFunction,Legend,Top*%
%TF.FilePolarity,Positive*%
%FSLAX46Y46*%
G04 Gerber Fmt 4.6, Leading zero omitted, Abs format (unit mm)*
G04 Created by KiCad (PCBNEW 8.0.8) date 2025-04-20 20:40:11*
%MOMM*%
%LPD*%
G01*
G04 APERTURE LIST*
%ADD10C,0.100000*%
G04 APERTURE END LIST*
D10*
X108107524Y-106959609D02*
X108440857Y-106959609D01*
X108583714Y-107483419D02*
X108107524Y-107483419D01*
X108107524Y-107483419D02*
X108107524Y-106483419D01*
X108107524Y-106483419D02*
X108583714Y-106483419D01*
X109440857Y-106483419D02*
X109250381Y-106483419D01*
X109250381Y-106483419D02*
X109155143Y-106531038D01*
X109155143Y-106531038D02*
X109107524Y-106578657D01*
X109107524Y-106578657D02*
X109012286Y-106721514D01*
X109012286Y-106721514D02*
X108964667Y-106911990D01*
X108964667Y-106911990D02*
X108964667Y-107292942D01*
X108964667Y-107292942D02*
X109012286Y-107388180D01*
X109012286Y-107388180D02*
X109059905Y-107435800D01*
X109059905Y-107435800D02*
X109155143Y-107483419D01*
X109155143Y-107483419D02*
X109345619Y-107483419D01*
X109345619Y-107483419D02*
X109440857Y-107435800D01*
X109440857Y-107435800D02*
X109488476Y-107388180D01*
X109488476Y-107388180D02*
X109536095Y-107292942D01*
X109536095Y-107292942D02*
X109536095Y-107054847D01*
X109536095Y-107054847D02*
X109488476Y-106959609D01*
X109488476Y-106959609D02*
X109440857Y-106911990D01*
X109440857Y-106911990D02*
X109345619Y-106864371D01*
X109345619Y-106864371D02*
X109155143Y-106864371D01*
X109155143Y-106864371D02*
X109059905Y-106911990D01*
X109059905Y-106911990D02*
X109012286Y-106959609D01*
X109012286Y-106959609D02*
X108964667Y-107054847D01*
X90817524Y-92724609D02*
X91150857Y-92724609D01*
X91293714Y-93248419D02*
X90817524Y-93248419D01*
X90817524Y-93248419D02*
X90817524Y-92248419D01*
X90817524Y-92248419D02*
X91293714Y-92248419D01*
X92246095Y-93248419D02*
X91674667Y-93248419D01*
X91960381Y-93248419D02*
X91960381Y-92248419D01*
X91960381Y-92248419D02*
X91865143Y-92391276D01*
X91865143Y-92391276D02*
X91769905Y-92486514D01*
X91769905Y-92486514D02*
X91674667Y-92534133D01*
X99320524Y-111514609D02*
X99653857Y-111514609D01*
X99796714Y-112038419D02*
X99320524Y-112038419D01*
X99320524Y-112038419D02*
X99320524Y-111038419D01*
X99320524Y-111038419D02*
X99796714Y-111038419D01*
X100701476Y-111038419D02*
X100225286Y-111038419D01*
X100225286Y-111038419D02*
X100177667Y-111514609D01*
X100177667Y-111514609D02*
X100225286Y-111466990D01*
X100225286Y-111466990D02*
X100320524Y-111419371D01*
X100320524Y-111419371D02*
X100558619Y-111419371D01*
X100558619Y-111419371D02*
X100653857Y-111466990D01*
X100653857Y-111466990D02*
X100701476Y-111514609D01*
X100701476Y-111514609D02*
X100749095Y-111609847D01*
X100749095Y-111609847D02*
X100749095Y-111847942D01*
X100749095Y-111847942D02*
X100701476Y-111943180D01*
X100701476Y-111943180D02*
X100653857Y-111990800D01*
X100653857Y-111990800D02*
X100558619Y-112038419D01*
X100558619Y-112038419D02*
X100320524Y-112038419D01*
X100320524Y-112038419D02*
X100225286Y-111990800D01*
X100225286Y-111990800D02*
X100177667Y-111943180D01*
X90474524Y-106782609D02*
X90807857Y-106782609D01*
X90950714Y-107306419D02*
X90474524Y-107306419D01*
X90474524Y-107306419D02*
X90474524Y-106306419D01*
X90474524Y-106306419D02*
X90950714Y-106306419D01*
X91807857Y-106639752D02*
X91807857Y-107306419D01*
X91569762Y-106258800D02*
X91331667Y-106973085D01*
X91331667Y-106973085D02*
X91950714Y-106973085D01*
X107275524Y-92724609D02*
X107608857Y-92724609D01*
X107751714Y-93248419D02*
X107275524Y-93248419D01*
X107275524Y-93248419D02*
X107275524Y-92248419D01*
X107275524Y-92248419D02*
X107751714Y-92248419D01*
X108085048Y-92248419D02*
X108704095Y-92248419D01*
X108704095Y-92248419D02*
X108370762Y-92629371D01*
X108370762Y-92629371D02*
X108513619Y-92629371D01*
X108513619Y-92629371D02*
X108608857Y-92676990D01*
X108608857Y-92676990D02*
X108656476Y-92724609D01*
X108656476Y-92724609D02*
X108704095Y-92819847D01*
X108704095Y-92819847D02*
X108704095Y-93057942D01*
X108704095Y-93057942D02*
X108656476Y-93153180D01*
X108656476Y-93153180D02*
X108608857Y-93200800D01*
X108608857Y-93200800D02*
X108513619Y-93248419D01*
X108513619Y-93248419D02*
X108227905Y-93248419D01*
X108227905Y-93248419D02*
X108132667Y-93200800D01*
X108132667Y-93200800D02*
X108085048Y-93153180D01*
X99389524Y-88267609D02*
X99722857Y-88267609D01*
X99865714Y-88791419D02*
X99389524Y-88791419D01*
X99389524Y-88791419D02*
X99389524Y-87791419D01*
X99389524Y-87791419D02*
X99865714Y-87791419D01*
X100246667Y-87886657D02*
X100294286Y-87839038D01*
X100294286Y-87839038D02*
X100389524Y-87791419D01*
X100389524Y-87791419D02*
X100627619Y-87791419D01*
X100627619Y-87791419D02*
X100722857Y-87839038D01*
X100722857Y-87839038D02*
X100770476Y-87886657D01*
X100770476Y-87886657D02*
X100818095Y-87981895D01*
X100818095Y-87981895D02*
X100818095Y-88077133D01*
X100818095Y-88077133D02*
X100770476Y-88219990D01*
X100770476Y-88219990D02*
X100199048Y-88791419D01*
X100199048Y-88791419D02*
X100818095Y-88791419D01*
M02*
