%TF.GenerationSoftware,KiCad,Pcbnew,9.0.1*%
%TF.CreationDate,2026-05-29T15:18:30-07:00*%
%TF.ProjectId,electrodePCB,656c6563-7472-46f6-9465-5043422e6b69,rev?*%
%TF.SameCoordinates,Original*%
%TF.FileFunction,Legend,Bot*%
%TF.FilePolarity,Positive*%
%FSLAX46Y46*%
G04 Gerber Fmt 4.6, Leading zero omitted, Abs format (unit mm)*
G04 Created by KiCad (PCBNEW 9.0.1) date 2026-05-29 15:18:30*
%MOMM*%
%LPD*%
G01*
G04 APERTURE LIST*
%ADD10C,0.150000*%
%ADD11C,0.120000*%
%ADD12C,0.152400*%
G04 APERTURE END LIST*
D10*
X116177704Y-107318298D02*
X115977624Y-107032639D01*
X116294968Y-106996117D02*
X115731152Y-106790905D01*
X115731152Y-106790905D02*
X115652976Y-107005692D01*
X115652976Y-107005692D02*
X115660280Y-107069161D01*
X115660280Y-107069161D02*
X115677357Y-107105781D01*
X115677357Y-107105781D02*
X115721282Y-107152174D01*
X115721282Y-107152174D02*
X115801827Y-107181490D01*
X115801827Y-107181490D02*
X115865295Y-107174185D01*
X115865295Y-107174185D02*
X115901916Y-107157109D01*
X115901916Y-107157109D02*
X115948308Y-107113184D01*
X115948308Y-107113184D02*
X116026484Y-106898397D01*
X115589409Y-107347417D02*
X115552788Y-107364493D01*
X115552788Y-107364493D02*
X115506396Y-107408418D01*
X115506396Y-107408418D02*
X115457536Y-107542659D01*
X115457536Y-107542659D02*
X115464840Y-107606128D01*
X115464840Y-107606128D02*
X115481917Y-107642749D01*
X115481917Y-107642749D02*
X115525841Y-107689141D01*
X115525841Y-107689141D02*
X115579538Y-107708685D01*
X115579538Y-107708685D02*
X115669855Y-107711153D01*
X115669855Y-107711153D02*
X116109300Y-107506236D01*
X116109300Y-107506236D02*
X115982264Y-107855265D01*
X107095716Y-89656629D02*
X107411778Y-89509193D01*
X107392639Y-89828058D02*
X107692639Y-89308443D01*
X107692639Y-89308443D02*
X107494690Y-89194157D01*
X107494690Y-89194157D02*
X107430918Y-89190329D01*
X107430918Y-89190329D02*
X107391888Y-89200787D01*
X107391888Y-89200787D02*
X107338573Y-89235988D01*
X107338573Y-89235988D02*
X107295716Y-89310219D01*
X107295716Y-89310219D02*
X107291888Y-89373992D01*
X107291888Y-89373992D02*
X107302346Y-89413021D01*
X107302346Y-89413021D02*
X107337548Y-89466336D01*
X107337548Y-89466336D02*
X107535496Y-89580622D01*
X106848280Y-89513772D02*
X106749306Y-89456629D01*
X106749306Y-89456629D02*
X106714104Y-89403314D01*
X106714104Y-89403314D02*
X106703647Y-89364285D01*
X106703647Y-89364285D02*
X106697017Y-89261483D01*
X106697017Y-89261483D02*
X106729416Y-89148223D01*
X106729416Y-89148223D02*
X106843702Y-88950274D01*
X106843702Y-88950274D02*
X106897017Y-88915073D01*
X106897017Y-88915073D02*
X106936046Y-88904615D01*
X106936046Y-88904615D02*
X106999819Y-88908443D01*
X106999819Y-88908443D02*
X107098793Y-88965585D01*
X107098793Y-88965585D02*
X107133995Y-89018900D01*
X107133995Y-89018900D02*
X107144452Y-89057930D01*
X107144452Y-89057930D02*
X107140625Y-89121703D01*
X107140625Y-89121703D02*
X107069196Y-89245421D01*
X107069196Y-89245421D02*
X107015881Y-89280622D01*
X107015881Y-89280622D02*
X106976852Y-89291080D01*
X106976852Y-89291080D02*
X106913079Y-89287252D01*
X106913079Y-89287252D02*
X106814104Y-89230109D01*
X106814104Y-89230109D02*
X106778903Y-89176794D01*
X106778903Y-89176794D02*
X106768445Y-89137765D01*
X106768445Y-89137765D02*
X106772273Y-89073992D01*
X96179462Y-116215229D02*
X95955247Y-115948096D01*
X96268199Y-115884055D02*
X95688644Y-115728763D01*
X95688644Y-115728763D02*
X95629485Y-115949546D01*
X95629485Y-115949546D02*
X95642294Y-116012137D01*
X95642294Y-116012137D02*
X95662497Y-116047130D01*
X95662497Y-116047130D02*
X95710298Y-116089517D01*
X95710298Y-116089517D02*
X95793091Y-116111702D01*
X95793091Y-116111702D02*
X95855682Y-116098893D01*
X95855682Y-116098893D02*
X95890674Y-116078690D01*
X95890674Y-116078690D02*
X95933062Y-116030889D01*
X95933062Y-116030889D02*
X95992221Y-115810106D01*
X95466799Y-116556700D02*
X95496378Y-116446308D01*
X95496378Y-116446308D02*
X95538766Y-116398507D01*
X95538766Y-116398507D02*
X95573759Y-116378304D01*
X95573759Y-116378304D02*
X95671342Y-116345293D01*
X95671342Y-116345293D02*
X95789128Y-116347274D01*
X95789128Y-116347274D02*
X96009911Y-116406433D01*
X96009911Y-116406433D02*
X96057712Y-116448820D01*
X96057712Y-116448820D02*
X96077915Y-116483813D01*
X96077915Y-116483813D02*
X96090724Y-116546404D01*
X96090724Y-116546404D02*
X96061144Y-116656795D01*
X96061144Y-116656795D02*
X96018757Y-116704596D01*
X96018757Y-116704596D02*
X95983764Y-116724799D01*
X95983764Y-116724799D02*
X95921173Y-116737607D01*
X95921173Y-116737607D02*
X95783184Y-116700633D01*
X95783184Y-116700633D02*
X95735383Y-116658246D01*
X95735383Y-116658246D02*
X95715180Y-116623253D01*
X95715180Y-116623253D02*
X95702372Y-116560662D01*
X95702372Y-116560662D02*
X95731951Y-116450271D01*
X95731951Y-116450271D02*
X95774339Y-116402470D01*
X95774339Y-116402470D02*
X95809331Y-116382267D01*
X95809331Y-116382267D02*
X95871922Y-116369459D01*
X94472488Y-88595629D02*
X94502835Y-88248193D01*
X94769411Y-88424200D02*
X94469411Y-87904585D01*
X94469411Y-87904585D02*
X94271462Y-88018870D01*
X94271462Y-88018870D02*
X94236260Y-88072185D01*
X94236260Y-88072185D02*
X94225803Y-88111215D01*
X94225803Y-88111215D02*
X94229630Y-88174988D01*
X94229630Y-88174988D02*
X94272488Y-88249218D01*
X94272488Y-88249218D02*
X94325803Y-88284420D01*
X94325803Y-88284420D02*
X94364832Y-88294878D01*
X94364832Y-88294878D02*
X94428605Y-88291050D01*
X94428605Y-88291050D02*
X94626553Y-88176764D01*
X93999282Y-88176013D02*
X93652872Y-88376013D01*
X93652872Y-88376013D02*
X94175565Y-88767057D01*
X99238460Y-113779892D02*
X98971264Y-113555752D01*
X99268342Y-113438340D02*
X98670625Y-113386047D01*
X98670625Y-113386047D02*
X98650704Y-113613748D01*
X98650704Y-113613748D02*
X98674186Y-113673164D01*
X98674186Y-113673164D02*
X98700159Y-113704117D01*
X98700159Y-113704117D02*
X98754594Y-113737560D01*
X98754594Y-113737560D02*
X98839982Y-113745030D01*
X98839982Y-113745030D02*
X98899398Y-113721548D01*
X98899398Y-113721548D02*
X98930350Y-113695575D01*
X98930350Y-113695575D02*
X98963794Y-113641140D01*
X98963794Y-113641140D02*
X98983715Y-113413438D01*
X98795159Y-114257359D02*
X99193637Y-114292221D01*
X98579908Y-114095124D02*
X99019300Y-113990163D01*
X99019300Y-113990163D02*
X98986928Y-114360178D01*
X100949999Y-87615771D02*
X101149999Y-87330057D01*
X101292856Y-87615771D02*
X101292856Y-87015771D01*
X101292856Y-87015771D02*
X101064285Y-87015771D01*
X101064285Y-87015771D02*
X101007142Y-87044342D01*
X101007142Y-87044342D02*
X100978571Y-87072914D01*
X100978571Y-87072914D02*
X100949999Y-87130057D01*
X100949999Y-87130057D02*
X100949999Y-87215771D01*
X100949999Y-87215771D02*
X100978571Y-87272914D01*
X100978571Y-87272914D02*
X101007142Y-87301485D01*
X101007142Y-87301485D02*
X101064285Y-87330057D01*
X101064285Y-87330057D02*
X101292856Y-87330057D01*
X100607142Y-87272914D02*
X100664285Y-87244342D01*
X100664285Y-87244342D02*
X100692856Y-87215771D01*
X100692856Y-87215771D02*
X100721428Y-87158628D01*
X100721428Y-87158628D02*
X100721428Y-87130057D01*
X100721428Y-87130057D02*
X100692856Y-87072914D01*
X100692856Y-87072914D02*
X100664285Y-87044342D01*
X100664285Y-87044342D02*
X100607142Y-87015771D01*
X100607142Y-87015771D02*
X100492856Y-87015771D01*
X100492856Y-87015771D02*
X100435714Y-87044342D01*
X100435714Y-87044342D02*
X100407142Y-87072914D01*
X100407142Y-87072914D02*
X100378571Y-87130057D01*
X100378571Y-87130057D02*
X100378571Y-87158628D01*
X100378571Y-87158628D02*
X100407142Y-87215771D01*
X100407142Y-87215771D02*
X100435714Y-87244342D01*
X100435714Y-87244342D02*
X100492856Y-87272914D01*
X100492856Y-87272914D02*
X100607142Y-87272914D01*
X100607142Y-87272914D02*
X100664285Y-87301485D01*
X100664285Y-87301485D02*
X100692856Y-87330057D01*
X100692856Y-87330057D02*
X100721428Y-87387200D01*
X100721428Y-87387200D02*
X100721428Y-87501485D01*
X100721428Y-87501485D02*
X100692856Y-87558628D01*
X100692856Y-87558628D02*
X100664285Y-87587200D01*
X100664285Y-87587200D02*
X100607142Y-87615771D01*
X100607142Y-87615771D02*
X100492856Y-87615771D01*
X100492856Y-87615771D02*
X100435714Y-87587200D01*
X100435714Y-87587200D02*
X100407142Y-87558628D01*
X100407142Y-87558628D02*
X100378571Y-87501485D01*
X100378571Y-87501485D02*
X100378571Y-87387200D01*
X100378571Y-87387200D02*
X100407142Y-87330057D01*
X100407142Y-87330057D02*
X100435714Y-87301485D01*
X100435714Y-87301485D02*
X100492856Y-87272914D01*
X112788090Y-108879115D02*
X113190816Y-109025695D01*
X113190816Y-109025695D02*
X113281133Y-109028163D01*
X113281133Y-109028163D02*
X113354373Y-108994010D01*
X113354373Y-108994010D02*
X113410538Y-108923237D01*
X113410538Y-108923237D02*
X113430082Y-108869540D01*
X112753839Y-109140294D02*
X112717219Y-109157371D01*
X112717219Y-109157371D02*
X112670826Y-109201295D01*
X112670826Y-109201295D02*
X112621966Y-109335537D01*
X112621966Y-109335537D02*
X112629271Y-109399006D01*
X112629271Y-109399006D02*
X112646347Y-109435626D01*
X112646347Y-109435626D02*
X112690272Y-109482019D01*
X112690272Y-109482019D02*
X112743968Y-109501563D01*
X112743968Y-109501563D02*
X112834285Y-109504030D01*
X112834285Y-109504030D02*
X113273730Y-109299114D01*
X113273730Y-109299114D02*
X113146694Y-109648143D01*
X94901716Y-109113628D02*
X95217778Y-108966192D01*
X95198639Y-109285057D02*
X95498639Y-108765442D01*
X95498639Y-108765442D02*
X95300690Y-108651156D01*
X95300690Y-108651156D02*
X95236918Y-108647328D01*
X95236918Y-108647328D02*
X95197888Y-108657786D01*
X95197888Y-108657786D02*
X95144573Y-108692987D01*
X95144573Y-108692987D02*
X95101716Y-108767218D01*
X95101716Y-108767218D02*
X95097888Y-108830991D01*
X95097888Y-108830991D02*
X95108346Y-108870020D01*
X95108346Y-108870020D02*
X95143548Y-108923335D01*
X95143548Y-108923335D02*
X95341496Y-109037621D01*
X94731588Y-108322584D02*
X94979024Y-108465442D01*
X94979024Y-108465442D02*
X94860910Y-108727163D01*
X94860910Y-108727163D02*
X94850452Y-108688134D01*
X94850452Y-108688134D02*
X94815251Y-108634819D01*
X94815251Y-108634819D02*
X94691533Y-108563390D01*
X94691533Y-108563390D02*
X94627760Y-108559562D01*
X94627760Y-108559562D02*
X94588731Y-108570020D01*
X94588731Y-108570020D02*
X94535416Y-108605222D01*
X94535416Y-108605222D02*
X94463987Y-108728940D01*
X94463987Y-108728940D02*
X94460159Y-108792713D01*
X94460159Y-108792713D02*
X94470617Y-108831742D01*
X94470617Y-108831742D02*
X94505819Y-108885057D01*
X94505819Y-108885057D02*
X94629537Y-108956485D01*
X94629537Y-108956485D02*
X94693310Y-108960313D01*
X94693310Y-108960313D02*
X94732339Y-108949855D01*
X105331488Y-108993630D02*
X105361835Y-108646194D01*
X105628411Y-108822201D02*
X105328411Y-108302586D01*
X105328411Y-108302586D02*
X105130462Y-108416871D01*
X105130462Y-108416871D02*
X105095260Y-108470186D01*
X105095260Y-108470186D02*
X105084803Y-108509216D01*
X105084803Y-108509216D02*
X105088630Y-108572989D01*
X105088630Y-108572989D02*
X105131488Y-108647219D01*
X105131488Y-108647219D02*
X105184803Y-108682421D01*
X105184803Y-108682421D02*
X105223832Y-108692879D01*
X105223832Y-108692879D02*
X105287605Y-108689051D01*
X105287605Y-108689051D02*
X105485553Y-108574765D01*
X104858282Y-108574014D02*
X104536616Y-108759729D01*
X104536616Y-108759729D02*
X104824107Y-108857677D01*
X104824107Y-108857677D02*
X104749876Y-108900534D01*
X104749876Y-108900534D02*
X104714674Y-108953849D01*
X104714674Y-108953849D02*
X104704217Y-108992879D01*
X104704217Y-108992879D02*
X104708044Y-109056652D01*
X104708044Y-109056652D02*
X104779473Y-109180370D01*
X104779473Y-109180370D02*
X104832788Y-109215571D01*
X104832788Y-109215571D02*
X104871817Y-109226029D01*
X104871817Y-109226029D02*
X104935590Y-109222201D01*
X104935590Y-109222201D02*
X105084052Y-109136487D01*
X105084052Y-109136487D02*
X105119253Y-109083172D01*
X105119253Y-109083172D02*
X105129711Y-109044142D01*
X100459142Y-117147771D02*
X100459142Y-117633485D01*
X100459142Y-117633485D02*
X100430571Y-117690628D01*
X100430571Y-117690628D02*
X100402000Y-117719200D01*
X100402000Y-117719200D02*
X100344857Y-117747771D01*
X100344857Y-117747771D02*
X100230571Y-117747771D01*
X100230571Y-117747771D02*
X100173428Y-117719200D01*
X100173428Y-117719200D02*
X100144857Y-117690628D01*
X100144857Y-117690628D02*
X100116285Y-117633485D01*
X100116285Y-117633485D02*
X100116285Y-117147771D01*
X99516286Y-117747771D02*
X99859143Y-117747771D01*
X99687714Y-117747771D02*
X99687714Y-117147771D01*
X99687714Y-117147771D02*
X99744857Y-117233485D01*
X99744857Y-117233485D02*
X99802000Y-117290628D01*
X99802000Y-117290628D02*
X99859143Y-117319200D01*
X97450763Y-116493442D02*
X97483861Y-116470266D01*
X97483861Y-116470266D02*
X97526883Y-116390815D01*
X97526883Y-116390815D02*
X97536806Y-116334540D01*
X97536806Y-116334540D02*
X97523552Y-116245167D01*
X97523552Y-116245167D02*
X97477200Y-116178969D01*
X97477200Y-116178969D02*
X97425887Y-116140909D01*
X97425887Y-116140909D02*
X97318299Y-116092926D01*
X97318299Y-116092926D02*
X97233887Y-116078042D01*
X97233887Y-116078042D02*
X97116376Y-116086334D01*
X97116376Y-116086334D02*
X97055140Y-116104549D01*
X97055140Y-116104549D02*
X96988942Y-116150901D01*
X96988942Y-116150901D02*
X96945921Y-116230351D01*
X96945921Y-116230351D02*
X96935998Y-116286626D01*
X96935998Y-116286626D02*
X96949251Y-116375999D01*
X96949251Y-116375999D02*
X96972427Y-116409098D01*
X97407810Y-117066112D02*
X97467346Y-116728463D01*
X97437578Y-116897287D02*
X96846693Y-116793099D01*
X96846693Y-116793099D02*
X96941028Y-116751708D01*
X96941028Y-116751708D02*
X97007226Y-116705356D01*
X97007226Y-116705356D02*
X97045286Y-116654043D01*
X108727704Y-104618298D02*
X108527624Y-104332639D01*
X108844968Y-104296117D02*
X108281152Y-104090905D01*
X108281152Y-104090905D02*
X108202976Y-104305692D01*
X108202976Y-104305692D02*
X108210280Y-104369161D01*
X108210280Y-104369161D02*
X108227357Y-104405781D01*
X108227357Y-104405781D02*
X108271282Y-104452174D01*
X108271282Y-104452174D02*
X108351827Y-104481490D01*
X108351827Y-104481490D02*
X108415295Y-104474185D01*
X108415295Y-104474185D02*
X108451916Y-104457109D01*
X108451916Y-104457109D02*
X108498308Y-104413184D01*
X108498308Y-104413184D02*
X108576484Y-104198397D01*
X108532264Y-105155265D02*
X108649528Y-104833085D01*
X108590896Y-104994175D02*
X108027080Y-104788963D01*
X108027080Y-104788963D02*
X108127169Y-104764582D01*
X108127169Y-104764582D02*
X108200410Y-104730429D01*
X108200410Y-104730429D02*
X108246802Y-104686505D01*
X87397000Y-91759771D02*
X87397000Y-92188342D01*
X87397000Y-92188342D02*
X87425571Y-92274057D01*
X87425571Y-92274057D02*
X87482714Y-92331200D01*
X87482714Y-92331200D02*
X87568428Y-92359771D01*
X87568428Y-92359771D02*
X87625571Y-92359771D01*
X86797000Y-92359771D02*
X87139857Y-92359771D01*
X86968428Y-92359771D02*
X86968428Y-91759771D01*
X86968428Y-91759771D02*
X87025571Y-91845485D01*
X87025571Y-91845485D02*
X87082714Y-91902628D01*
X87082714Y-91902628D02*
X87139857Y-91931200D01*
D11*
%TO.C,R2*%
X116091465Y-105603657D02*
X115986367Y-105892408D01*
X116805633Y-105863592D02*
X116700535Y-106152343D01*
%TO.C,R9*%
X107694221Y-88821127D02*
X107283279Y-88583870D01*
X108216721Y-87916130D02*
X107805779Y-87678873D01*
%TO.C,R6*%
X95813183Y-114923056D02*
X95892714Y-114626244D01*
X96547286Y-115119756D02*
X96626817Y-114822944D01*
%TO.C,R7*%
X93634222Y-86818874D02*
X93223279Y-87056130D01*
X94156721Y-87723870D02*
X93745778Y-87961126D01*
%TO.C,R4*%
X98404837Y-115135824D02*
X98378055Y-115441938D01*
X99161945Y-115202062D02*
X99135163Y-115508176D01*
%TO.C,R8*%
X101087258Y-85527500D02*
X100612742Y-85527500D01*
X101087258Y-86572500D02*
X100612742Y-86572500D01*
%TO.C,J2*%
X111394258Y-107369803D02*
X111753380Y-106383124D01*
X111753380Y-106383124D02*
X110823084Y-106044524D01*
X112474905Y-107763125D02*
X111394258Y-107369803D01*
X113521625Y-101524912D02*
X113162502Y-102511591D01*
X114602270Y-101918237D02*
X113521625Y-101524912D01*
X114726263Y-107337464D02*
X116053301Y-103691457D01*
%TO.C,R5*%
X91997524Y-110814263D02*
X94642477Y-112341327D01*
X93357523Y-108458673D02*
X96002476Y-109985737D01*
%TO.C,R3*%
X103997524Y-109985737D02*
X106642477Y-108458674D01*
X105357523Y-112341326D02*
X108002476Y-110814263D01*
%TO.C,U1*%
X99415000Y-115146000D02*
X99415000Y-116616502D01*
X99652500Y-116854000D02*
X100585000Y-116854000D01*
X100585000Y-115146000D02*
X99415000Y-115146000D01*
X100585000Y-116854000D02*
X100585000Y-115146000D01*
X99415000Y-117353998D02*
X98914999Y-116854000D01*
X99415000Y-116854000D01*
X99415000Y-117353998D01*
G36*
X99415000Y-117353998D02*
G01*
X98914999Y-116854000D01*
X99415000Y-116854000D01*
X99415000Y-117353998D01*
G37*
%TO.C,C1*%
X97039338Y-114752884D02*
X97088160Y-114475994D01*
X98043840Y-114930006D02*
X98092662Y-114653116D01*
%TO.C,R1*%
X108529368Y-103189408D02*
X108634465Y-102900657D01*
X109243535Y-103449343D02*
X109348632Y-103160592D01*
D12*
%TO.C,J1*%
X86561600Y-92634000D02*
X87831600Y-92634000D01*
X87196600Y-94158000D02*
X89381000Y-94158000D01*
X87196600Y-94767600D02*
X87196600Y-94158000D01*
X87196600Y-105842000D02*
X87196600Y-105232400D01*
X87196601Y-93904000D02*
X86561600Y-92634000D01*
X87831600Y-92634000D02*
X87196601Y-93904000D01*
X89381000Y-105842000D02*
X87196600Y-105842000D01*
X90803399Y-94894600D02*
X90803399Y-105105400D01*
%TD*%
M02*
