%TF.GenerationSoftware,KiCad,Pcbnew,8.0.8*%
%TF.CreationDate,2025-03-21T13:24:36-07:00*%
%TF.ProjectId,theConductor,74686543-6f6e-4647-9563-746f722e6b69,rev?*%
%TF.SameCoordinates,Original*%
%TF.FileFunction,Copper,L2,Bot*%
%TF.FilePolarity,Positive*%
%FSLAX46Y46*%
G04 Gerber Fmt 4.6, Leading zero omitted, Abs format (unit mm)*
G04 Created by KiCad (PCBNEW 8.0.8) date 2025-03-21 13:24:36*
%MOMM*%
%LPD*%
G01*
G04 APERTURE LIST*
G04 Aperture macros list*
%AMFreePoly0*
4,1,32,1.175354,2.110354,1.175500,2.110000,1.175500,1.179300,1.175354,1.178946,1.175216,1.178849,1.072307,1.129519,0.884240,1.000302,0.721729,0.840131,0.589799,0.653958,0.492537,0.447555,0.432946,0.227290,0.412876,0.000000,0.432946,-0.227290,0.492537,-0.447555,0.589799,-0.653958,0.721729,-0.840131,0.884240,-1.000302,1.072307,-1.129519,1.175216,-1.178849,1.175472,-1.179134,
1.175500,-1.179300,1.175500,-2.110000,1.175354,-2.110354,1.175000,-2.110500,-0.395000,-2.110500,-0.395354,-2.110354,-0.395500,-2.110000,-0.395500,2.110000,-0.395354,2.110354,-0.395000,2.110500,1.175000,2.110500,1.175354,2.110354,1.175354,2.110354,$1*%
%AMFreePoly1*
4,1,32,0.435354,2.110354,0.435500,2.110000,0.435500,-2.110000,0.435354,-2.110354,0.435000,-2.110500,-1.135000,-2.110500,-1.135354,-2.110354,-1.135500,-2.110000,-1.135500,-1.179300,-1.135354,-1.178946,-1.135216,-1.178849,-1.032307,-1.129519,-0.844240,-1.000302,-0.681729,-0.840131,-0.549799,-0.653958,-0.452537,-0.447555,-0.392946,-0.227290,-0.372876,0.000000,-0.392946,0.227290,-0.452537,0.447555,
-0.549799,0.653958,-0.681729,0.840131,-0.844240,1.000302,-1.032307,1.129519,-1.135216,1.178849,-1.135472,1.179134,-1.135500,1.179300,-1.135500,2.110000,-1.135354,2.110354,-1.135000,2.110500,0.435000,2.110500,0.435354,2.110354,0.435354,2.110354,$1*%
G04 Aperture macros list end*
%TA.AperFunction,SMDPad,CuDef*%
%ADD10C,1.470000*%
%TD*%
%TA.AperFunction,SMDPad,CuDef*%
%ADD11FreePoly0,270.000000*%
%TD*%
%TA.AperFunction,SMDPad,CuDef*%
%ADD12FreePoly1,270.000000*%
%TD*%
%TA.AperFunction,SMDPad,CuDef*%
%ADD13FreePoly0,135.000000*%
%TD*%
%TA.AperFunction,SMDPad,CuDef*%
%ADD14FreePoly1,135.000000*%
%TD*%
%TA.AperFunction,SMDPad,CuDef*%
%ADD15FreePoly0,180.000000*%
%TD*%
%TA.AperFunction,SMDPad,CuDef*%
%ADD16FreePoly1,180.000000*%
%TD*%
%TA.AperFunction,SMDPad,CuDef*%
%ADD17FreePoly0,225.000000*%
%TD*%
%TA.AperFunction,SMDPad,CuDef*%
%ADD18FreePoly1,225.000000*%
%TD*%
%TA.AperFunction,SMDPad,CuDef*%
%ADD19FreePoly0,315.000000*%
%TD*%
%TA.AperFunction,SMDPad,CuDef*%
%ADD20FreePoly1,315.000000*%
%TD*%
%TA.AperFunction,SMDPad,CuDef*%
%ADD21FreePoly0,0.000000*%
%TD*%
%TA.AperFunction,SMDPad,CuDef*%
%ADD22FreePoly1,0.000000*%
%TD*%
%TA.AperFunction,SMDPad,CuDef*%
%ADD23FreePoly0,45.000000*%
%TD*%
%TA.AperFunction,SMDPad,CuDef*%
%ADD24FreePoly1,45.000000*%
%TD*%
%TA.AperFunction,ViaPad*%
%ADD25C,0.600000*%
%TD*%
%TA.AperFunction,Conductor*%
%ADD26C,0.500000*%
%TD*%
G04 APERTURE END LIST*
D10*
%TO.P,J8,1,In*%
%TO.N,Net-(J8-In)*%
X100010000Y-105340000D03*
D11*
%TO.P,J8,2,Ext*%
%TO.N,Net-(J8-Ext)*%
X100010000Y-103630000D03*
D12*
X100010000Y-107010000D03*
%TD*%
D10*
%TO.P,J7,1,In*%
%TO.N,Net-(J7-In)*%
X100000000Y-100000000D03*
D11*
%TO.P,J7,2,Ext*%
%TO.N,Net-(J7-Ext)*%
X100000000Y-98290000D03*
D12*
X100000000Y-101670000D03*
%TD*%
D10*
%TO.P,J6,1,In*%
%TO.N,Net-(E6-E)*%
X89390000Y-110600000D03*
D13*
%TO.P,J6,2,Ext*%
%TO.N,unconnected-(J6-Ext-Pad2)*%
X90599153Y-111809153D03*
D14*
X88209132Y-109419132D03*
%TD*%
D10*
%TO.P,J5,1,In*%
%TO.N,Net-(E5-E)*%
X100000000Y-115000000D03*
D15*
%TO.P,J5,2,Ext*%
%TO.N,unconnected-(J5-Ext-Pad2)*%
X101710000Y-115000000D03*
D16*
X98330000Y-115000000D03*
%TD*%
D10*
%TO.P,J4,1,In*%
%TO.N,Net-(E4-E)*%
X110610000Y-110610000D03*
D17*
%TO.P,J4,2,Ext*%
%TO.N,unconnected-(J4-Ext-Pad2)*%
X111819153Y-109400847D03*
D18*
X109429132Y-111790868D03*
%TD*%
D10*
%TO.P,J3,1,In*%
%TO.N,Net-(E3-E)*%
X110610000Y-89390000D03*
D19*
%TO.P,J3,2,Ext*%
%TO.N,unconnected-(J3-Ext-Pad2)*%
X109400847Y-88180847D03*
D20*
X111790868Y-90570868D03*
%TD*%
D10*
%TO.P,J2,1,In*%
%TO.N,Net-(E2-E)*%
X100000000Y-85000000D03*
D21*
%TO.P,J2,2,Ext*%
%TO.N,unconnected-(J2-Ext-Pad2)*%
X98290000Y-85000000D03*
D22*
X101670000Y-85000000D03*
%TD*%
D10*
%TO.P,J1,1,In*%
%TO.N,Net-(E1-E)*%
X89380000Y-89390000D03*
D23*
%TO.P,J1,2,Ext*%
%TO.N,unconnected-(J1-Ext-Pad2)*%
X88170847Y-90599153D03*
D24*
X90560868Y-88209132D03*
%TD*%
D25*
%TO.N,Net-(E4-E)*%
X110610000Y-110610000D03*
%TO.N,Net-(E5-E)*%
X100000000Y-115000000D03*
%TO.N,Net-(E6-E)*%
X89390000Y-110600000D03*
%TO.N,Net-(E1-E)*%
X89380000Y-89390000D03*
%TO.N,Net-(E2-E)*%
X100000000Y-85000000D03*
%TO.N,Net-(E3-E)*%
X110610000Y-89390000D03*
%TO.N,Net-(J8-In)*%
X82980000Y-102500000D03*
%TO.N,Net-(J8-Ext)*%
X117000000Y-102500000D03*
%TO.N,Net-(J7-Ext)*%
X114980000Y-100010000D03*
%TO.N,Net-(J7-In)*%
X85010000Y-100000000D03*
%TD*%
D26*
%TO.N,Net-(J7-In)*%
X100000000Y-100000000D02*
X85010000Y-100000000D01*
%TO.N,Net-(J7-Ext)*%
X105000000Y-100000000D02*
X105010000Y-100010000D01*
X105010000Y-100010000D02*
X114980000Y-100010000D01*
%TO.N,Net-(J8-In)*%
X85820000Y-105340000D02*
X100010000Y-105340000D01*
%TO.N,Net-(J8-Ext)*%
X117000000Y-102500000D02*
X114180000Y-105320000D01*
X114180000Y-105320000D02*
X104940000Y-105320000D01*
X104940000Y-105310000D02*
X104940000Y-105320000D01*
X103270000Y-106990000D02*
X104940000Y-105320000D01*
X99940000Y-106990000D02*
X103270000Y-106990000D01*
X103230000Y-103610000D02*
X104940000Y-105320000D01*
X99940000Y-103610000D02*
X103230000Y-103610000D01*
%TO.N,Net-(J8-In)*%
X85820000Y-105340000D02*
X82980000Y-102500000D01*
%TO.N,Net-(J7-Ext)*%
X100000000Y-101670000D02*
X103330000Y-101670000D01*
X103330000Y-101670000D02*
X105000000Y-100000000D01*
X103290000Y-98290000D02*
X105000000Y-100000000D01*
X100000000Y-98290000D02*
X103290000Y-98290000D01*
%TD*%
M02*
