%TF.GenerationSoftware,KiCad,Pcbnew,8.0.8*%
%TF.CreationDate,2025-03-21T13:24:36-07:00*%
%TF.ProjectId,theConductor,74686543-6f6e-4647-9563-746f722e6b69,rev?*%
%TF.SameCoordinates,Original*%
%TF.FileFunction,Legend,Top*%
%TF.FilePolarity,Positive*%
%FSLAX46Y46*%
G04 Gerber Fmt 4.6, Leading zero omitted, Abs format (unit mm)*
G04 Created by KiCad (PCBNEW 8.0.8) date 2025-03-21 13:24:36*
%MOMM*%
%LPD*%
G01*
G04 APERTURE LIST*
%ADD10C,0.100000*%
G04 APERTURE END LIST*
D10*
X88719524Y-106893609D02*
X89052857Y-106893609D01*
X89195714Y-107417419D02*
X88719524Y-107417419D01*
X88719524Y-107417419D02*
X88719524Y-106417419D01*
X88719524Y-106417419D02*
X89195714Y-106417419D01*
X90052857Y-106417419D02*
X89862381Y-106417419D01*
X89862381Y-106417419D02*
X89767143Y-106465038D01*
X89767143Y-106465038D02*
X89719524Y-106512657D01*
X89719524Y-106512657D02*
X89624286Y-106655514D01*
X89624286Y-106655514D02*
X89576667Y-106845990D01*
X89576667Y-106845990D02*
X89576667Y-107226942D01*
X89576667Y-107226942D02*
X89624286Y-107322180D01*
X89624286Y-107322180D02*
X89671905Y-107369800D01*
X89671905Y-107369800D02*
X89767143Y-107417419D01*
X89767143Y-107417419D02*
X89957619Y-107417419D01*
X89957619Y-107417419D02*
X90052857Y-107369800D01*
X90052857Y-107369800D02*
X90100476Y-107322180D01*
X90100476Y-107322180D02*
X90148095Y-107226942D01*
X90148095Y-107226942D02*
X90148095Y-106988847D01*
X90148095Y-106988847D02*
X90100476Y-106893609D01*
X90100476Y-106893609D02*
X90052857Y-106845990D01*
X90052857Y-106845990D02*
X89957619Y-106798371D01*
X89957619Y-106798371D02*
X89767143Y-106798371D01*
X89767143Y-106798371D02*
X89671905Y-106845990D01*
X89671905Y-106845990D02*
X89624286Y-106893609D01*
X89624286Y-106893609D02*
X89576667Y-106988847D01*
X99329524Y-111293609D02*
X99662857Y-111293609D01*
X99805714Y-111817419D02*
X99329524Y-111817419D01*
X99329524Y-111817419D02*
X99329524Y-110817419D01*
X99329524Y-110817419D02*
X99805714Y-110817419D01*
X100710476Y-110817419D02*
X100234286Y-110817419D01*
X100234286Y-110817419D02*
X100186667Y-111293609D01*
X100186667Y-111293609D02*
X100234286Y-111245990D01*
X100234286Y-111245990D02*
X100329524Y-111198371D01*
X100329524Y-111198371D02*
X100567619Y-111198371D01*
X100567619Y-111198371D02*
X100662857Y-111245990D01*
X100662857Y-111245990D02*
X100710476Y-111293609D01*
X100710476Y-111293609D02*
X100758095Y-111388847D01*
X100758095Y-111388847D02*
X100758095Y-111626942D01*
X100758095Y-111626942D02*
X100710476Y-111722180D01*
X100710476Y-111722180D02*
X100662857Y-111769800D01*
X100662857Y-111769800D02*
X100567619Y-111817419D01*
X100567619Y-111817419D02*
X100329524Y-111817419D01*
X100329524Y-111817419D02*
X100234286Y-111769800D01*
X100234286Y-111769800D02*
X100186667Y-111722180D01*
X109939524Y-106903609D02*
X110272857Y-106903609D01*
X110415714Y-107427419D02*
X109939524Y-107427419D01*
X109939524Y-107427419D02*
X109939524Y-106427419D01*
X109939524Y-106427419D02*
X110415714Y-106427419D01*
X111272857Y-106760752D02*
X111272857Y-107427419D01*
X111034762Y-106379800D02*
X110796667Y-107094085D01*
X110796667Y-107094085D02*
X111415714Y-107094085D01*
X99419524Y-88413609D02*
X99752857Y-88413609D01*
X99895714Y-88937419D02*
X99419524Y-88937419D01*
X99419524Y-88937419D02*
X99419524Y-87937419D01*
X99419524Y-87937419D02*
X99895714Y-87937419D01*
X100276667Y-88032657D02*
X100324286Y-87985038D01*
X100324286Y-87985038D02*
X100419524Y-87937419D01*
X100419524Y-87937419D02*
X100657619Y-87937419D01*
X100657619Y-87937419D02*
X100752857Y-87985038D01*
X100752857Y-87985038D02*
X100800476Y-88032657D01*
X100800476Y-88032657D02*
X100848095Y-88127895D01*
X100848095Y-88127895D02*
X100848095Y-88223133D01*
X100848095Y-88223133D02*
X100800476Y-88365990D01*
X100800476Y-88365990D02*
X100229048Y-88937419D01*
X100229048Y-88937419D02*
X100848095Y-88937419D01*
X88799524Y-92803609D02*
X89132857Y-92803609D01*
X89275714Y-93327419D02*
X88799524Y-93327419D01*
X88799524Y-93327419D02*
X88799524Y-92327419D01*
X88799524Y-92327419D02*
X89275714Y-92327419D01*
X90228095Y-93327419D02*
X89656667Y-93327419D01*
X89942381Y-93327419D02*
X89942381Y-92327419D01*
X89942381Y-92327419D02*
X89847143Y-92470276D01*
X89847143Y-92470276D02*
X89751905Y-92565514D01*
X89751905Y-92565514D02*
X89656667Y-92613133D01*
X110029524Y-92803609D02*
X110362857Y-92803609D01*
X110505714Y-93327419D02*
X110029524Y-93327419D01*
X110029524Y-93327419D02*
X110029524Y-92327419D01*
X110029524Y-92327419D02*
X110505714Y-92327419D01*
X110839048Y-92327419D02*
X111458095Y-92327419D01*
X111458095Y-92327419D02*
X111124762Y-92708371D01*
X111124762Y-92708371D02*
X111267619Y-92708371D01*
X111267619Y-92708371D02*
X111362857Y-92755990D01*
X111362857Y-92755990D02*
X111410476Y-92803609D01*
X111410476Y-92803609D02*
X111458095Y-92898847D01*
X111458095Y-92898847D02*
X111458095Y-93136942D01*
X111458095Y-93136942D02*
X111410476Y-93232180D01*
X111410476Y-93232180D02*
X111362857Y-93279800D01*
X111362857Y-93279800D02*
X111267619Y-93327419D01*
X111267619Y-93327419D02*
X110981905Y-93327419D01*
X110981905Y-93327419D02*
X110886667Y-93279800D01*
X110886667Y-93279800D02*
X110839048Y-93232180D01*
M02*
