%TF.GenerationSoftware,KiCad,Pcbnew,9.0.1*%
%TF.CreationDate,2026-05-29T15:18:30-07:00*%
%TF.ProjectId,electrodePCB,656c6563-7472-46f6-9465-5043422e6b69,rev?*%
%TF.SameCoordinates,Original*%
%TF.FileFunction,Legend,Top*%
%TF.FilePolarity,Positive*%
%FSLAX46Y46*%
G04 Gerber Fmt 4.6, Leading zero omitted, Abs format (unit mm)*
G04 Created by KiCad (PCBNEW 9.0.1) date 2026-05-29 15:18:30*
%MOMM*%
%LPD*%
G01*
G04 APERTURE LIST*
%ADD10C,0.100000*%
%ADD11C,0.050000*%
G04 APERTURE END LIST*
D10*
X116655340Y-82322330D02*
G75*
G02*
X117677670Y-81299940I1022360J30D01*
G01*
X118700059Y-82322330D02*
G75*
G02*
X117677670Y-83344659I-1022359J30D01*
G01*
X83462160Y-117620201D02*
X81417441Y-117620200D01*
X98977670Y-100000000D02*
G75*
G02*
X100000000Y-98977670I1022330J0D01*
G01*
X117688776Y-81300000D02*
X117688776Y-83344719D01*
X100011106Y-98977670D02*
X100011106Y-101022389D01*
X82428724Y-118642501D02*
X82428724Y-116597782D01*
X83462160Y-117620171D02*
G75*
G02*
X82439830Y-118642560I-1022360J-29D01*
G01*
X98977670Y-99999970D02*
X101022389Y-99999970D01*
X101022389Y-100000000D02*
G75*
G02*
X100000000Y-101022389I-1022389J0D01*
G01*
X116655340Y-82322300D02*
X118700059Y-82322300D01*
X81417441Y-117620171D02*
G75*
G02*
X82439830Y-116597841I1022359J-29D01*
G01*
X99271524Y-112436609D02*
X99604857Y-112436609D01*
X99747714Y-112960419D02*
X99271524Y-112960419D01*
X99271524Y-112960419D02*
X99271524Y-111960419D01*
X99271524Y-111960419D02*
X99747714Y-111960419D01*
X100604857Y-112293752D02*
X100604857Y-112960419D01*
X100366762Y-111912800D02*
X100128667Y-112627085D01*
X100128667Y-112627085D02*
X100747714Y-112627085D01*
X107325524Y-89709609D02*
X107658857Y-89709609D01*
X107801714Y-90233419D02*
X107325524Y-90233419D01*
X107325524Y-90233419D02*
X107325524Y-89233419D01*
X107325524Y-89233419D02*
X107801714Y-89233419D01*
X108182667Y-89328657D02*
X108230286Y-89281038D01*
X108230286Y-89281038D02*
X108325524Y-89233419D01*
X108325524Y-89233419D02*
X108563619Y-89233419D01*
X108563619Y-89233419D02*
X108658857Y-89281038D01*
X108658857Y-89281038D02*
X108706476Y-89328657D01*
X108706476Y-89328657D02*
X108754095Y-89423895D01*
X108754095Y-89423895D02*
X108754095Y-89519133D01*
X108754095Y-89519133D02*
X108706476Y-89661990D01*
X108706476Y-89661990D02*
X108135048Y-90233419D01*
X108135048Y-90233419D02*
X108754095Y-90233419D01*
X107272416Y-110292500D02*
X107605749Y-110292500D01*
X107748606Y-110816310D02*
X107272416Y-110816310D01*
X107272416Y-110816310D02*
X107272416Y-109816310D01*
X107272416Y-109816310D02*
X107748606Y-109816310D01*
X108081940Y-109816310D02*
X108700987Y-109816310D01*
X108700987Y-109816310D02*
X108367654Y-110197262D01*
X108367654Y-110197262D02*
X108510511Y-110197262D01*
X108510511Y-110197262D02*
X108605749Y-110244881D01*
X108605749Y-110244881D02*
X108653368Y-110292500D01*
X108653368Y-110292500D02*
X108700987Y-110387738D01*
X108700987Y-110387738D02*
X108700987Y-110625833D01*
X108700987Y-110625833D02*
X108653368Y-110721071D01*
X108653368Y-110721071D02*
X108605749Y-110768691D01*
X108605749Y-110768691D02*
X108510511Y-110816310D01*
X108510511Y-110816310D02*
X108224797Y-110816310D01*
X108224797Y-110816310D02*
X108129559Y-110768691D01*
X108129559Y-110768691D02*
X108081940Y-110721071D01*
X99303525Y-87560121D02*
X99636858Y-87560121D01*
X99779715Y-88083931D02*
X99303525Y-88083931D01*
X99303525Y-88083931D02*
X99303525Y-87083931D01*
X99303525Y-87083931D02*
X99779715Y-87083931D01*
X100732096Y-88083931D02*
X100160668Y-88083931D01*
X100446382Y-88083931D02*
X100446382Y-87083931D01*
X100446382Y-87083931D02*
X100351144Y-87226788D01*
X100351144Y-87226788D02*
X100255906Y-87322026D01*
X100255906Y-87322026D02*
X100160668Y-87369645D01*
X99238095Y-102909800D02*
X99380952Y-102957419D01*
X99380952Y-102957419D02*
X99619047Y-102957419D01*
X99619047Y-102957419D02*
X99714285Y-102909800D01*
X99714285Y-102909800D02*
X99761904Y-102862180D01*
X99761904Y-102862180D02*
X99809523Y-102766942D01*
X99809523Y-102766942D02*
X99809523Y-102671704D01*
X99809523Y-102671704D02*
X99761904Y-102576466D01*
X99761904Y-102576466D02*
X99714285Y-102528847D01*
X99714285Y-102528847D02*
X99619047Y-102481228D01*
X99619047Y-102481228D02*
X99428571Y-102433609D01*
X99428571Y-102433609D02*
X99333333Y-102385990D01*
X99333333Y-102385990D02*
X99285714Y-102338371D01*
X99285714Y-102338371D02*
X99238095Y-102243133D01*
X99238095Y-102243133D02*
X99238095Y-102147895D01*
X99238095Y-102147895D02*
X99285714Y-102052657D01*
X99285714Y-102052657D02*
X99333333Y-102005038D01*
X99333333Y-102005038D02*
X99428571Y-101957419D01*
X99428571Y-101957419D02*
X99666666Y-101957419D01*
X99666666Y-101957419D02*
X99809523Y-102005038D01*
X100761904Y-102957419D02*
X100190476Y-102957419D01*
X100476190Y-102957419D02*
X100476190Y-101957419D01*
X100476190Y-101957419D02*
X100380952Y-102100276D01*
X100380952Y-102100276D02*
X100285714Y-102195514D01*
X100285714Y-102195514D02*
X100190476Y-102243133D01*
X91282296Y-110299229D02*
X91615629Y-110299229D01*
X91758486Y-110823039D02*
X91282296Y-110823039D01*
X91282296Y-110823039D02*
X91282296Y-109823039D01*
X91282296Y-109823039D02*
X91758486Y-109823039D01*
X92663248Y-109823039D02*
X92187058Y-109823039D01*
X92187058Y-109823039D02*
X92139439Y-110299229D01*
X92139439Y-110299229D02*
X92187058Y-110251610D01*
X92187058Y-110251610D02*
X92282296Y-110203991D01*
X92282296Y-110203991D02*
X92520391Y-110203991D01*
X92520391Y-110203991D02*
X92615629Y-110251610D01*
X92615629Y-110251610D02*
X92663248Y-110299229D01*
X92663248Y-110299229D02*
X92710867Y-110394467D01*
X92710867Y-110394467D02*
X92710867Y-110632562D01*
X92710867Y-110632562D02*
X92663248Y-110727800D01*
X92663248Y-110727800D02*
X92615629Y-110775420D01*
X92615629Y-110775420D02*
X92520391Y-110823039D01*
X92520391Y-110823039D02*
X92282296Y-110823039D01*
X92282296Y-110823039D02*
X92187058Y-110775420D01*
X92187058Y-110775420D02*
X92139439Y-110727800D01*
X91278388Y-89711422D02*
X91611721Y-89711422D01*
X91754578Y-90235232D02*
X91278388Y-90235232D01*
X91278388Y-90235232D02*
X91278388Y-89235232D01*
X91278388Y-89235232D02*
X91754578Y-89235232D01*
X92373626Y-89235232D02*
X92468864Y-89235232D01*
X92468864Y-89235232D02*
X92564102Y-89282851D01*
X92564102Y-89282851D02*
X92611721Y-89330470D01*
X92611721Y-89330470D02*
X92659340Y-89425708D01*
X92659340Y-89425708D02*
X92706959Y-89616184D01*
X92706959Y-89616184D02*
X92706959Y-89854279D01*
X92706959Y-89854279D02*
X92659340Y-90044755D01*
X92659340Y-90044755D02*
X92611721Y-90139993D01*
X92611721Y-90139993D02*
X92564102Y-90187613D01*
X92564102Y-90187613D02*
X92468864Y-90235232D01*
X92468864Y-90235232D02*
X92373626Y-90235232D01*
X92373626Y-90235232D02*
X92278388Y-90187613D01*
X92278388Y-90187613D02*
X92230769Y-90139993D01*
X92230769Y-90139993D02*
X92183150Y-90044755D01*
X92183150Y-90044755D02*
X92135531Y-89854279D01*
X92135531Y-89854279D02*
X92135531Y-89616184D01*
X92135531Y-89616184D02*
X92183150Y-89425708D01*
X92183150Y-89425708D02*
X92230769Y-89330470D01*
X92230769Y-89330470D02*
X92278388Y-89282851D01*
X92278388Y-89282851D02*
X92373626Y-89235232D01*
D11*
%TO.C,E4*%
X102500000Y-116000000D02*
G75*
G02*
X97500000Y-116000000I-2500000J0D01*
G01*
X97500000Y-116000000D02*
G75*
G02*
X102500000Y-116000000I2500000J0D01*
G01*
%TO.C,E2*%
X110521999Y-86105488D02*
G75*
G02*
X105521999Y-86105488I-2500000J0D01*
G01*
X105521999Y-86105488D02*
G75*
G02*
X110521999Y-86105488I2500000J0D01*
G01*
%TO.C,E3*%
X110500892Y-113855891D02*
G75*
G02*
X105500892Y-113855891I-2500000J0D01*
G01*
X105500892Y-113855891D02*
G75*
G02*
X110500892Y-113855891I2500000J0D01*
G01*
%TO.C,E1*%
X102500000Y-83956000D02*
G75*
G02*
X97500000Y-83956000I-2500000J0D01*
G01*
X97500000Y-83956000D02*
G75*
G02*
X102500000Y-83956000I2500000J0D01*
G01*
%TO.C,S1*%
X85000000Y-92500000D02*
X87000000Y-92500000D01*
X87000000Y-107500000D01*
X85000000Y-107500000D01*
X85000000Y-92500000D01*
X88000000Y-95000000D02*
X90000000Y-95000000D01*
X90000000Y-105000000D01*
X88000000Y-105000000D01*
X88000000Y-95000000D01*
X110000000Y-95000000D02*
X112000000Y-95000000D01*
X112000000Y-105000000D01*
X110000000Y-105000000D01*
X110000000Y-95000000D01*
X113000000Y-92500000D02*
X115000000Y-92500000D01*
X115000000Y-107500000D01*
X113000000Y-107500000D01*
X113000000Y-92500000D01*
%TO.C,E5*%
X94510772Y-113862620D02*
G75*
G02*
X89510772Y-113862620I-2500000J0D01*
G01*
X89510772Y-113862620D02*
G75*
G02*
X94510772Y-113862620I2500000J0D01*
G01*
%TO.C,E0*%
X94474863Y-86107301D02*
G75*
G02*
X89474863Y-86107301I-2500000J0D01*
G01*
X89474863Y-86107301D02*
G75*
G02*
X94474863Y-86107301I2500000J0D01*
G01*
%TD*%
M02*
