%TF.GenerationSoftware,KiCad,Pcbnew,9.0.1*%
%TF.CreationDate,2026-05-29T15:18:30-07:00*%
%TF.ProjectId,electrodePCB,656c6563-7472-46f6-9465-5043422e6b69,rev?*%
%TF.SameCoordinates,Original*%
%TF.FileFunction,Copper,L1,Top*%
%TF.FilePolarity,Positive*%
%FSLAX46Y46*%
G04 Gerber Fmt 4.6, Leading zero omitted, Abs format (unit mm)*
G04 Created by KiCad (PCBNEW 9.0.1) date 2026-05-29 15:18:30*
%MOMM*%
%LPD*%
G01*
G04 APERTURE LIST*
G04 Aperture macros list*
%AMRoundRect*
0 Rectangle with rounded corners*
0 $1 Rounding radius*
0 $2 $3 $4 $5 $6 $7 $8 $9 X,Y pos of 4 corners*
0 Add a 4 corners polygon primitive as box body*
4,1,4,$2,$3,$4,$5,$6,$7,$8,$9,$2,$3,0*
0 Add four circle primitives for the rounded corners*
1,1,$1+$1,$2,$3*
1,1,$1+$1,$4,$5*
1,1,$1+$1,$6,$7*
1,1,$1+$1,$8,$9*
0 Add four rect primitives between the rounded corners*
20,1,$1+$1,$2,$3,$4,$5,0*
20,1,$1+$1,$4,$5,$6,$7,0*
20,1,$1+$1,$6,$7,$8,$9,0*
20,1,$1+$1,$8,$9,$2,$3,0*%
G04 Aperture macros list end*
%TA.AperFunction,SMDPad,CuDef*%
%ADD10C,4.000000*%
%TD*%
%TA.AperFunction,SMDPad,CuDef*%
%ADD11RoundRect,0.120000X-0.280000X-6.780000X0.280000X-6.780000X0.280000X6.780000X-0.280000X6.780000X0*%
%TD*%
%TA.AperFunction,SMDPad,CuDef*%
%ADD12RoundRect,0.120000X-0.280000X-4.280000X0.280000X-4.280000X0.280000X4.280000X-0.280000X4.280000X0*%
%TD*%
%TA.AperFunction,ViaPad*%
%ADD13C,0.900000*%
%TD*%
G04 APERTURE END LIST*
D10*
%TO.P,E4,1,Pin_1*%
%TO.N,Net-(E4-Pin_1)*%
X100000000Y-116000000D03*
%TD*%
%TO.P,E2,1,Pin_1*%
%TO.N,Net-(E2-Pin_1)*%
X108021999Y-86105488D03*
%TD*%
%TO.P,E3,1,Pin_1*%
%TO.N,Net-(E3-Pin_1)*%
X108000892Y-113855891D03*
%TD*%
%TO.P,E1,1,Pin_1*%
%TO.N,Net-(E1-Pin_1)*%
X100000000Y-84000000D03*
%TD*%
D11*
%TO.P,S1,1,Pin_1*%
%TO.N,Net-(J1-Pin_4)*%
X86000000Y-100000000D03*
D12*
%TO.P,S1,2,Pin_2*%
%TO.N,Net-(J1-Pin_5)*%
X89000000Y-100000000D03*
%TO.P,S1,3,Pin_3*%
%TO.N,Net-(J1-Pin_6)*%
X111000000Y-100000000D03*
D11*
%TO.P,S1,4,Pin_4*%
%TO.N,Net-(J1-Pin_7)*%
X114000000Y-100000000D03*
%TD*%
D10*
%TO.P,E5,1,Pin_1*%
%TO.N,Net-(E5-Pin_1)*%
X92010772Y-113862620D03*
%TD*%
%TO.P,E0,1,Pin_1*%
%TO.N,Net-(E0-Pin_1)*%
X91974863Y-86107301D03*
%TD*%
D13*
%TO.N,Net-(E1-Pin_1)*%
X100000000Y-84000000D03*
%TO.N,Net-(E2-Pin_1)*%
X108021999Y-86105488D03*
%TO.N,Net-(E3-Pin_1)*%
X108000892Y-113855891D03*
%TO.N,Net-(E4-Pin_1)*%
X101060000Y-114900000D03*
%TO.N,Net-(E5-Pin_1)*%
X92880000Y-112610000D03*
%TO.N,Net-(E0-Pin_1)*%
X91974863Y-86107301D03*
%TO.N,Net-(J1-Pin_5)*%
X89000000Y-97000000D03*
%TO.N,Net-(J1-Pin_7)*%
X114024000Y-100000000D03*
%TO.N,Net-(J1-Pin_6)*%
X110999000Y-97750010D03*
%TO.N,Net-(J1-Pin_4)*%
X86000000Y-96750010D03*
%TO.N,E3_therm_pad*%
X105639833Y-111309519D03*
X107008013Y-110459763D03*
X106240000Y-110790000D03*
%TO.N,E5_therm_pad*%
X94400000Y-111320000D03*
X93730000Y-110820000D03*
X92980000Y-110560000D03*
%TD*%
%TA.AperFunction,Conductor*%
%TO.N,E3_therm_pad*%
G36*
X108332145Y-109830158D02*
G01*
X108344239Y-109831150D01*
X108721355Y-109880799D01*
X108733318Y-109882975D01*
X109103750Y-109969347D01*
X109115451Y-109972688D01*
X109475636Y-110094955D01*
X109486921Y-110099415D01*
X109833405Y-110256404D01*
X109844209Y-110261954D01*
X110101989Y-110410783D01*
X110173617Y-110452138D01*
X110183844Y-110458732D01*
X110493025Y-110680288D01*
X110502539Y-110687839D01*
X110693596Y-110855391D01*
X110788520Y-110938637D01*
X110797264Y-110947100D01*
X111057268Y-111224704D01*
X111065141Y-111233983D01*
X111296691Y-111535745D01*
X111303616Y-111545751D01*
X111504470Y-111868750D01*
X111510381Y-111879386D01*
X111678610Y-112220522D01*
X111683450Y-112231687D01*
X111817430Y-112587660D01*
X111821153Y-112599246D01*
X111919597Y-112966646D01*
X111922166Y-112978540D01*
X111984125Y-113353826D01*
X111985515Y-113365915D01*
X112010391Y-113745443D01*
X112010591Y-113757610D01*
X111998146Y-114137779D01*
X111997151Y-114149907D01*
X111947505Y-114527001D01*
X111945327Y-114538973D01*
X111895921Y-114750864D01*
X111861527Y-114811683D01*
X111851475Y-114820441D01*
X110749460Y-115680946D01*
X110739817Y-115687763D01*
X110627190Y-115759585D01*
X110560081Y-115779033D01*
X110493112Y-115759113D01*
X110447543Y-115706148D01*
X110437843Y-115636955D01*
X110455525Y-115589062D01*
X110631134Y-115309584D01*
X110631137Y-115309578D01*
X110631138Y-115309577D01*
X110777361Y-115005942D01*
X110888668Y-114687845D01*
X110963659Y-114359285D01*
X111001392Y-114024395D01*
X111001392Y-113687387D01*
X110963659Y-113352497D01*
X110888668Y-113023937D01*
X110777361Y-112705840D01*
X110631138Y-112402205D01*
X110451838Y-112116852D01*
X110241717Y-111853368D01*
X110003415Y-111615066D01*
X109739931Y-111404945D01*
X109454578Y-111225645D01*
X109454575Y-111225643D01*
X109150946Y-111079423D01*
X108832857Y-110968118D01*
X108832845Y-110968114D01*
X108504289Y-110893124D01*
X108504273Y-110893122D01*
X108169400Y-110855391D01*
X108169396Y-110855391D01*
X107832388Y-110855391D01*
X107832383Y-110855391D01*
X107497510Y-110893122D01*
X107497494Y-110893124D01*
X107168938Y-110968114D01*
X107168926Y-110968118D01*
X106850837Y-111079423D01*
X106547208Y-111225643D01*
X106261854Y-111404944D01*
X105998369Y-111615065D01*
X105760066Y-111853368D01*
X105549945Y-112116853D01*
X105370644Y-112402207D01*
X105224424Y-112705836D01*
X105113119Y-113023925D01*
X105113115Y-113023937D01*
X105038125Y-113352493D01*
X105038123Y-113352509D01*
X105000392Y-113687382D01*
X105000392Y-114024399D01*
X105038123Y-114359272D01*
X105038125Y-114359288D01*
X105113115Y-114687844D01*
X105113119Y-114687856D01*
X105224424Y-115005945D01*
X105370644Y-115309574D01*
X105370646Y-115309577D01*
X105549946Y-115594930D01*
X105760067Y-115858414D01*
X105998369Y-116096716D01*
X106261853Y-116306837D01*
X106547206Y-116486137D01*
X106850841Y-116632360D01*
X107006576Y-116686854D01*
X107168926Y-116743663D01*
X107168938Y-116743667D01*
X107497498Y-116818658D01*
X107832384Y-116856390D01*
X107832385Y-116856391D01*
X107832388Y-116856391D01*
X108169399Y-116856391D01*
X108169399Y-116856390D01*
X108322411Y-116839150D01*
X108391231Y-116851204D01*
X108442610Y-116898553D01*
X108460235Y-116966163D01*
X108438509Y-117032569D01*
X108389554Y-117074349D01*
X108097370Y-117213323D01*
X108092128Y-117215669D01*
X107181367Y-117598210D01*
X107178959Y-117599192D01*
X107014503Y-117664244D01*
X106944923Y-117670598D01*
X106940736Y-117669698D01*
X106918901Y-117664607D01*
X106907198Y-117661265D01*
X106547035Y-117539006D01*
X106535718Y-117534534D01*
X106189257Y-117377555D01*
X106178433Y-117371995D01*
X105849035Y-117181816D01*
X105838808Y-117175222D01*
X105639735Y-117032569D01*
X105529630Y-116953669D01*
X105520110Y-116946114D01*
X105234132Y-116695317D01*
X105225388Y-116686854D01*
X104965384Y-116409250D01*
X104957511Y-116399971D01*
X104725964Y-116098213D01*
X104719039Y-116088207D01*
X104518180Y-115765200D01*
X104512269Y-115754564D01*
X104344042Y-115413433D01*
X104339202Y-115402268D01*
X104205222Y-115046294D01*
X104201499Y-115034708D01*
X104103055Y-114667309D01*
X104100486Y-114655415D01*
X104051596Y-114359288D01*
X104038526Y-114280126D01*
X104037137Y-114268039D01*
X104012261Y-113888512D01*
X104012061Y-113876345D01*
X104018247Y-113687382D01*
X104024507Y-113496156D01*
X104025499Y-113484066D01*
X104075148Y-113106944D01*
X104077325Y-113094981D01*
X104107249Y-112966646D01*
X104163697Y-112724547D01*
X104167038Y-112712853D01*
X104169420Y-112705836D01*
X104289304Y-112352667D01*
X104293761Y-112341389D01*
X104450757Y-111994889D01*
X104456298Y-111984102D01*
X104646491Y-111654678D01*
X104653075Y-111644466D01*
X104874644Y-111335268D01*
X104882180Y-111325773D01*
X105132996Y-111039772D01*
X105141437Y-111031050D01*
X105419063Y-110771025D01*
X105428322Y-110763170D01*
X105730103Y-110531605D01*
X105740091Y-110524692D01*
X106063113Y-110323825D01*
X106073719Y-110317931D01*
X106414880Y-110149688D01*
X106426026Y-110144857D01*
X106782012Y-110010872D01*
X106793586Y-110007153D01*
X107161008Y-109908702D01*
X107172879Y-109906138D01*
X107548182Y-109844176D01*
X107560237Y-109842789D01*
X107939808Y-109817911D01*
X107951961Y-109817713D01*
X108332145Y-109830158D01*
G37*
%TD.AperFunction*%
%TD*%
%TA.AperFunction,Conductor*%
%TO.N,E5_therm_pad*%
G36*
X92212332Y-109865415D02*
G01*
X92590870Y-109902697D01*
X92602895Y-109904482D01*
X92975941Y-109978685D01*
X92987743Y-109981641D01*
X93351731Y-110092056D01*
X93363189Y-110096156D01*
X93714595Y-110241713D01*
X93725595Y-110246916D01*
X94061036Y-110426213D01*
X94071474Y-110432469D01*
X94387732Y-110643786D01*
X94397505Y-110651034D01*
X94654715Y-110862120D01*
X94691528Y-110892331D01*
X94700545Y-110900504D01*
X94969495Y-111169454D01*
X94977668Y-111178471D01*
X95218965Y-111472494D01*
X95226213Y-111482267D01*
X95437530Y-111798525D01*
X95443786Y-111808963D01*
X95623083Y-112144404D01*
X95628286Y-112155404D01*
X95773843Y-112506810D01*
X95777943Y-112518268D01*
X95888358Y-112882256D01*
X95891314Y-112894060D01*
X95965516Y-113267098D01*
X95967302Y-113279135D01*
X96004585Y-113657667D01*
X96005182Y-113669821D01*
X96005182Y-114050178D01*
X96004585Y-114062332D01*
X95967302Y-114440864D01*
X95965516Y-114452901D01*
X95891314Y-114825939D01*
X95888358Y-114837743D01*
X95777943Y-115201731D01*
X95773843Y-115213189D01*
X95628286Y-115564595D01*
X95623083Y-115575595D01*
X95443786Y-115911036D01*
X95437530Y-115921474D01*
X95226213Y-116237732D01*
X95218965Y-116247505D01*
X94977668Y-116541528D01*
X94969495Y-116550545D01*
X94700545Y-116819495D01*
X94691528Y-116827668D01*
X94397505Y-117068965D01*
X94387732Y-117076213D01*
X94071474Y-117287530D01*
X94061036Y-117293786D01*
X93725595Y-117473083D01*
X93714595Y-117478286D01*
X93363189Y-117623843D01*
X93351731Y-117627943D01*
X93176980Y-117680953D01*
X93107113Y-117681576D01*
X93094502Y-117677250D01*
X91845481Y-117172216D01*
X91834756Y-117167273D01*
X91678238Y-117085883D01*
X91627841Y-117037489D01*
X91611608Y-116969531D01*
X91634693Y-116903585D01*
X91689766Y-116860589D01*
X91749328Y-116852648D01*
X91814404Y-116859980D01*
X91842266Y-116863120D01*
X91842268Y-116863120D01*
X92179279Y-116863120D01*
X92179279Y-116863119D01*
X92514166Y-116825387D01*
X92842726Y-116750396D01*
X93160823Y-116639089D01*
X93464458Y-116492866D01*
X93749811Y-116313566D01*
X94013295Y-116103445D01*
X94251597Y-115865143D01*
X94461718Y-115601659D01*
X94641018Y-115316306D01*
X94787241Y-115012671D01*
X94898548Y-114694574D01*
X94973539Y-114366014D01*
X95011272Y-114031124D01*
X95011272Y-113694116D01*
X94973539Y-113359226D01*
X94898548Y-113030666D01*
X94787241Y-112712569D01*
X94641018Y-112408934D01*
X94461718Y-112123581D01*
X94251597Y-111860097D01*
X94013295Y-111621795D01*
X93749811Y-111411674D01*
X93464458Y-111232374D01*
X93464455Y-111232372D01*
X93160826Y-111086152D01*
X92842737Y-110974847D01*
X92842725Y-110974843D01*
X92514169Y-110899853D01*
X92514153Y-110899851D01*
X92179280Y-110862120D01*
X92179276Y-110862120D01*
X91842268Y-110862120D01*
X91842263Y-110862120D01*
X91507390Y-110899851D01*
X91507374Y-110899853D01*
X91178818Y-110974843D01*
X91178806Y-110974847D01*
X90860717Y-111086152D01*
X90557088Y-111232372D01*
X90271734Y-111411673D01*
X90008249Y-111621794D01*
X89769946Y-111860097D01*
X89559825Y-112123582D01*
X89380524Y-112408936D01*
X89234304Y-112712565D01*
X89122999Y-113030654D01*
X89122995Y-113030666D01*
X89048005Y-113359222D01*
X89048003Y-113359238D01*
X89010272Y-113694111D01*
X89010272Y-114031128D01*
X89048003Y-114366001D01*
X89048005Y-114366017D01*
X89122995Y-114694573D01*
X89122999Y-114694585D01*
X89234304Y-115012674D01*
X89380524Y-115316303D01*
X89559823Y-115601655D01*
X89561362Y-115603823D01*
X89561575Y-115604443D01*
X89561677Y-115604605D01*
X89561639Y-115604628D01*
X89565879Y-115616943D01*
X89574626Y-115627716D01*
X89577029Y-115649325D01*
X89584109Y-115669886D01*
X89580815Y-115683366D01*
X89582350Y-115697158D01*
X89572687Y-115716638D01*
X89567528Y-115737760D01*
X89557469Y-115747319D01*
X89551304Y-115759751D01*
X89532644Y-115770915D01*
X89516884Y-115785895D01*
X89503254Y-115788499D01*
X89491347Y-115795624D01*
X89469615Y-115794927D01*
X89448256Y-115799009D01*
X89433943Y-115793784D01*
X89421513Y-115793386D01*
X89389894Y-115777704D01*
X89192364Y-115641628D01*
X89187711Y-115638261D01*
X88401042Y-115040791D01*
X88398988Y-115039197D01*
X88164099Y-114852906D01*
X88123806Y-114795825D01*
X88119538Y-114779956D01*
X88054482Y-114452895D01*
X88052697Y-114440864D01*
X88045325Y-114366017D01*
X88015415Y-114062332D01*
X88014818Y-114050178D01*
X88014818Y-113669821D01*
X88015415Y-113657667D01*
X88044808Y-113359238D01*
X88052698Y-113279126D01*
X88054483Y-113267098D01*
X88101513Y-113030666D01*
X88128686Y-112894054D01*
X88131641Y-112882256D01*
X88183117Y-112712565D01*
X88242058Y-112518260D01*
X88246156Y-112506810D01*
X88391713Y-112155404D01*
X88396911Y-112144412D01*
X88576217Y-111808954D01*
X88582463Y-111798534D01*
X88793789Y-111482262D01*
X88801028Y-111472501D01*
X89042342Y-111178458D01*
X89050494Y-111169464D01*
X89319464Y-110900494D01*
X89328458Y-110892342D01*
X89622501Y-110651028D01*
X89632262Y-110643789D01*
X89948534Y-110432463D01*
X89958954Y-110426217D01*
X90294412Y-110246911D01*
X90305396Y-110241716D01*
X90656817Y-110096153D01*
X90668260Y-110092058D01*
X91032263Y-109981639D01*
X91044054Y-109978686D01*
X91417107Y-109904481D01*
X91429126Y-109902698D01*
X91807668Y-109865415D01*
X91819822Y-109864818D01*
X92200178Y-109864818D01*
X92212332Y-109865415D01*
G37*
%TD.AperFunction*%
%TD*%
M02*
