%TF.GenerationSoftware,KiCad,Pcbnew,8.0.8*%
%TF.CreationDate,2025-03-21T13:24:36-07:00*%
%TF.ProjectId,theConductor,74686543-6f6e-4647-9563-746f722e6b69,rev?*%
%TF.SameCoordinates,Original*%
%TF.FileFunction,Legend,Bot*%
%TF.FilePolarity,Positive*%
%FSLAX46Y46*%
G04 Gerber Fmt 4.6, Leading zero omitted, Abs format (unit mm)*
G04 Created by KiCad (PCBNEW 8.0.8) date 2025-03-21 13:24:36*
%MOMM*%
%LPD*%
G01*
G04 APERTURE LIST*
%ADD10C,0.150000*%
%ADD11C,0.120000*%
G04 APERTURE END LIST*
D10*
X96714819Y-105006666D02*
X97429104Y-105006666D01*
X97429104Y-105006666D02*
X97571961Y-104959047D01*
X97571961Y-104959047D02*
X97667200Y-104863809D01*
X97667200Y-104863809D02*
X97714819Y-104720952D01*
X97714819Y-104720952D02*
X97714819Y-104625714D01*
X97143390Y-105625714D02*
X97095771Y-105530476D01*
X97095771Y-105530476D02*
X97048152Y-105482857D01*
X97048152Y-105482857D02*
X96952914Y-105435238D01*
X96952914Y-105435238D02*
X96905295Y-105435238D01*
X96905295Y-105435238D02*
X96810057Y-105482857D01*
X96810057Y-105482857D02*
X96762438Y-105530476D01*
X96762438Y-105530476D02*
X96714819Y-105625714D01*
X96714819Y-105625714D02*
X96714819Y-105816190D01*
X96714819Y-105816190D02*
X96762438Y-105911428D01*
X96762438Y-105911428D02*
X96810057Y-105959047D01*
X96810057Y-105959047D02*
X96905295Y-106006666D01*
X96905295Y-106006666D02*
X96952914Y-106006666D01*
X96952914Y-106006666D02*
X97048152Y-105959047D01*
X97048152Y-105959047D02*
X97095771Y-105911428D01*
X97095771Y-105911428D02*
X97143390Y-105816190D01*
X97143390Y-105816190D02*
X97143390Y-105625714D01*
X97143390Y-105625714D02*
X97191009Y-105530476D01*
X97191009Y-105530476D02*
X97238628Y-105482857D01*
X97238628Y-105482857D02*
X97333866Y-105435238D01*
X97333866Y-105435238D02*
X97524342Y-105435238D01*
X97524342Y-105435238D02*
X97619580Y-105482857D01*
X97619580Y-105482857D02*
X97667200Y-105530476D01*
X97667200Y-105530476D02*
X97714819Y-105625714D01*
X97714819Y-105625714D02*
X97714819Y-105816190D01*
X97714819Y-105816190D02*
X97667200Y-105911428D01*
X97667200Y-105911428D02*
X97619580Y-105959047D01*
X97619580Y-105959047D02*
X97524342Y-106006666D01*
X97524342Y-106006666D02*
X97333866Y-106006666D01*
X97333866Y-106006666D02*
X97238628Y-105959047D01*
X97238628Y-105959047D02*
X97191009Y-105911428D01*
X97191009Y-105911428D02*
X97143390Y-105816190D01*
X96704819Y-99666666D02*
X97419104Y-99666666D01*
X97419104Y-99666666D02*
X97561961Y-99619047D01*
X97561961Y-99619047D02*
X97657200Y-99523809D01*
X97657200Y-99523809D02*
X97704819Y-99380952D01*
X97704819Y-99380952D02*
X97704819Y-99285714D01*
X96704819Y-100047619D02*
X96704819Y-100714285D01*
X96704819Y-100714285D02*
X97704819Y-100285714D01*
X91955747Y-108505657D02*
X91450671Y-109010733D01*
X91450671Y-109010733D02*
X91383327Y-109145420D01*
X91383327Y-109145420D02*
X91383327Y-109280107D01*
X91383327Y-109280107D02*
X91450671Y-109414794D01*
X91450671Y-109414794D02*
X91518014Y-109482138D01*
X91315984Y-107865893D02*
X91450671Y-108000580D01*
X91450671Y-108000580D02*
X91484342Y-108101596D01*
X91484342Y-108101596D02*
X91484342Y-108168939D01*
X91484342Y-108168939D02*
X91450671Y-108337298D01*
X91450671Y-108337298D02*
X91349655Y-108505657D01*
X91349655Y-108505657D02*
X91080281Y-108775031D01*
X91080281Y-108775031D02*
X90979266Y-108808702D01*
X90979266Y-108808702D02*
X90911923Y-108808702D01*
X90911923Y-108808702D02*
X90810907Y-108775031D01*
X90810907Y-108775031D02*
X90676220Y-108640344D01*
X90676220Y-108640344D02*
X90642549Y-108539328D01*
X90642549Y-108539328D02*
X90642549Y-108471985D01*
X90642549Y-108471985D02*
X90676220Y-108370970D01*
X90676220Y-108370970D02*
X90844579Y-108202611D01*
X90844579Y-108202611D02*
X90945594Y-108168939D01*
X90945594Y-108168939D02*
X91012938Y-108168939D01*
X91012938Y-108168939D02*
X91113953Y-108202611D01*
X91113953Y-108202611D02*
X91248640Y-108337298D01*
X91248640Y-108337298D02*
X91282312Y-108438313D01*
X91282312Y-108438313D02*
X91282312Y-108505657D01*
X91282312Y-108505657D02*
X91248640Y-108606672D01*
X100333333Y-111704819D02*
X100333333Y-112419104D01*
X100333333Y-112419104D02*
X100380952Y-112561961D01*
X100380952Y-112561961D02*
X100476190Y-112657200D01*
X100476190Y-112657200D02*
X100619047Y-112704819D01*
X100619047Y-112704819D02*
X100714285Y-112704819D01*
X99380952Y-111704819D02*
X99857142Y-111704819D01*
X99857142Y-111704819D02*
X99904761Y-112181009D01*
X99904761Y-112181009D02*
X99857142Y-112133390D01*
X99857142Y-112133390D02*
X99761904Y-112085771D01*
X99761904Y-112085771D02*
X99523809Y-112085771D01*
X99523809Y-112085771D02*
X99428571Y-112133390D01*
X99428571Y-112133390D02*
X99380952Y-112181009D01*
X99380952Y-112181009D02*
X99333333Y-112276247D01*
X99333333Y-112276247D02*
X99333333Y-112514342D01*
X99333333Y-112514342D02*
X99380952Y-112609580D01*
X99380952Y-112609580D02*
X99428571Y-112657200D01*
X99428571Y-112657200D02*
X99523809Y-112704819D01*
X99523809Y-112704819D02*
X99761904Y-112704819D01*
X99761904Y-112704819D02*
X99857142Y-112657200D01*
X99857142Y-112657200D02*
X99904761Y-112609580D01*
X108515657Y-108044252D02*
X109020733Y-108549328D01*
X109020733Y-108549328D02*
X109155420Y-108616672D01*
X109155420Y-108616672D02*
X109290107Y-108616672D01*
X109290107Y-108616672D02*
X109424794Y-108549328D01*
X109424794Y-108549328D02*
X109492138Y-108481985D01*
X108111596Y-108919718D02*
X108583000Y-109391122D01*
X108010580Y-108481985D02*
X108684015Y-108818702D01*
X108684015Y-108818702D02*
X108246283Y-109256435D01*
X108044252Y-91484342D02*
X108549328Y-90979266D01*
X108549328Y-90979266D02*
X108616672Y-90844579D01*
X108616672Y-90844579D02*
X108616672Y-90709892D01*
X108616672Y-90709892D02*
X108549328Y-90575205D01*
X108549328Y-90575205D02*
X108481985Y-90507861D01*
X108313626Y-91753716D02*
X108751359Y-92191449D01*
X108751359Y-92191449D02*
X108785031Y-91686373D01*
X108785031Y-91686373D02*
X108886046Y-91787388D01*
X108886046Y-91787388D02*
X108987061Y-91821060D01*
X108987061Y-91821060D02*
X109054405Y-91821060D01*
X109054405Y-91821060D02*
X109155420Y-91787388D01*
X109155420Y-91787388D02*
X109323779Y-91619029D01*
X109323779Y-91619029D02*
X109357450Y-91518014D01*
X109357450Y-91518014D02*
X109357450Y-91450671D01*
X109357450Y-91450671D02*
X109323779Y-91349655D01*
X109323779Y-91349655D02*
X109121748Y-91147625D01*
X109121748Y-91147625D02*
X109020733Y-91113953D01*
X109020733Y-91113953D02*
X108953389Y-91113953D01*
X99666666Y-88295180D02*
X99666666Y-87580895D01*
X99666666Y-87580895D02*
X99619047Y-87438038D01*
X99619047Y-87438038D02*
X99523809Y-87342800D01*
X99523809Y-87342800D02*
X99380952Y-87295180D01*
X99380952Y-87295180D02*
X99285714Y-87295180D01*
X100095238Y-88199942D02*
X100142857Y-88247561D01*
X100142857Y-88247561D02*
X100238095Y-88295180D01*
X100238095Y-88295180D02*
X100476190Y-88295180D01*
X100476190Y-88295180D02*
X100571428Y-88247561D01*
X100571428Y-88247561D02*
X100619047Y-88199942D01*
X100619047Y-88199942D02*
X100666666Y-88104704D01*
X100666666Y-88104704D02*
X100666666Y-88009466D01*
X100666666Y-88009466D02*
X100619047Y-87866609D01*
X100619047Y-87866609D02*
X100047619Y-87295180D01*
X100047619Y-87295180D02*
X100666666Y-87295180D01*
X91474342Y-91955747D02*
X90969266Y-91450671D01*
X90969266Y-91450671D02*
X90834579Y-91383327D01*
X90834579Y-91383327D02*
X90699892Y-91383327D01*
X90699892Y-91383327D02*
X90565205Y-91450671D01*
X90565205Y-91450671D02*
X90497861Y-91518014D01*
X91474342Y-90541533D02*
X91070281Y-90945594D01*
X91272312Y-90743564D02*
X91979419Y-91450671D01*
X91979419Y-91450671D02*
X91811060Y-91416999D01*
X91811060Y-91416999D02*
X91676373Y-91416999D01*
X91676373Y-91416999D02*
X91575358Y-91450671D01*
D11*
%TO.C,J8*%
X98160000Y-105540000D02*
X98160000Y-105140000D01*
X101860000Y-105140000D02*
X101860000Y-105540000D01*
%TO.C,J7*%
X98150000Y-100200000D02*
X98150000Y-99800000D01*
X101850000Y-99800000D02*
X101850000Y-100200000D01*
%TO.C,J6*%
X90556726Y-109150431D02*
X90839569Y-109433274D01*
X88223274Y-112049569D02*
X87940431Y-111766726D01*
%TO.C,J5*%
X99800000Y-113150000D02*
X100200000Y-113150000D01*
X100200000Y-116850000D02*
X99800000Y-116850000D01*
%TO.C,J4*%
X109160431Y-109443274D02*
X109443274Y-109160431D01*
X112059569Y-111776726D02*
X111776726Y-112059569D01*
%TO.C,J3*%
X109443274Y-90839569D02*
X109160431Y-90556726D01*
X111776726Y-87940431D02*
X112059569Y-88223274D01*
%TO.C,J2*%
X100200000Y-86850000D02*
X99800000Y-86850000D01*
X99800000Y-83150000D02*
X100200000Y-83150000D01*
%TO.C,J1*%
X90829569Y-90556726D02*
X90546726Y-90839569D01*
X87930431Y-88223274D02*
X88213274Y-87940431D01*
%TD*%
M02*
