%TF.GenerationSoftware,KiCad,Pcbnew,9.0.1*%
%TF.CreationDate,2026-05-29T15:18:30-07:00*%
%TF.ProjectId,electrodePCB,656c6563-7472-46f6-9465-5043422e6b69,rev?*%
%TF.SameCoordinates,Original*%
%TF.FileFunction,Profile,NP*%
%FSLAX46Y46*%
G04 Gerber Fmt 4.6, Leading zero omitted, Abs format (unit mm)*
G04 Created by KiCad (PCBNEW 9.0.1) date 2026-05-29 15:18:30*
%MOMM*%
%LPD*%
G01*
G04 APERTURE LIST*
%TA.AperFunction,Profile*%
%ADD10C,0.050000*%
%TD*%
G04 APERTURE END LIST*
D10*
X76238290Y-111732291D02*
G75*
G02*
X78249897Y-110824703I278510J2065791D01*
G01*
X121040000Y-112150000D02*
G75*
G02*
X122945214Y-113249976I952600J-550000D01*
G01*
X121047372Y-87852628D02*
G75*
G02*
X122952652Y-86752614I952628J550028D01*
G01*
X121047372Y-87852628D02*
G75*
G02*
X121757424Y-89175198I-21043872J-12149772D01*
G01*
X122952628Y-86752628D02*
G75*
G02*
X123764410Y-88270300I-22947928J-13250472D01*
G01*
X77057372Y-86737372D02*
G75*
G02*
X77965823Y-85275512I22949528J-13248428D01*
G01*
X78962628Y-87837372D02*
G75*
G02*
X79752983Y-86561165I21043872J-12149628D01*
G01*
X121040000Y-112150000D02*
G75*
G02*
X120249643Y-113426205I-21043900J12149700D01*
G01*
X78962628Y-87837372D02*
G75*
G02*
X77057396Y-86737386I-952628J549972D01*
G01*
X100000000Y-73500000D02*
G75*
G02*
X101720234Y-73555810I1300J-26499100D01*
G01*
X129000000Y-100000000D02*
G75*
G02*
X71000000Y-100000000I-29000000J0D01*
G01*
X71000000Y-100000000D02*
G75*
G02*
X129000000Y-100000000I29000000J0D01*
G01*
X77965891Y-85275556D02*
G75*
G02*
X79757686Y-86563914I1928309J791656D01*
G01*
X100000000Y-124300000D02*
G75*
G02*
X98499595Y-124253633I0J24299200D01*
G01*
X122036737Y-114711816D02*
G75*
G02*
X120244943Y-113423451I-1928337J-791684D01*
G01*
X123764338Y-88270337D02*
G75*
G02*
X121752715Y-89177915I-278528J-2065793D01*
G01*
X98279771Y-126444107D02*
G75*
G02*
X98499594Y-124248202I-1649771J1274107D01*
G01*
X100000000Y-75700000D02*
G75*
G02*
X100000000Y-73500000I0J1100000D01*
G01*
X77050000Y-113250000D02*
G75*
G02*
X76238216Y-111732329I22947900J13250500D01*
G01*
X100000000Y-126500000D02*
G75*
G02*
X98279766Y-126444190I-1300J26499100D01*
G01*
X100000000Y-75700000D02*
G75*
G02*
X101500405Y-75746367I0J-24299200D01*
G01*
X78955256Y-112150000D02*
G75*
G02*
X78245209Y-110827427I21043944J12149700D01*
G01*
X78955256Y-112150000D02*
G75*
G02*
X77049958Y-113250024I-952656J-550000D01*
G01*
X122945256Y-113250000D02*
G75*
G02*
X122036805Y-114711860I-22949456J13248400D01*
G01*
X101720229Y-73555893D02*
G75*
G02*
X101500405Y-75751797I1649771J-1274107D01*
G01*
X100000000Y-124300000D02*
G75*
G02*
X100000000Y-126500000I0J-1100000D01*
G01*
M02*
